<svg width="140" height="140" viewBox="0 0 30 30" fill="none" xmlns="http://www.w3.org/2000/svg">
<path d="M15.0001 0C6.71687 0 0 6.88559 0 15.3798C0 22.1749 4.29799 27.9399 10.258 29.9736C11.0077 30.1159 11.2829 29.6399 11.2829 29.2337C11.2829 28.867 11.269 27.6554 11.2625 26.3703C7.08946 27.3007 6.2089 24.5557 6.2089 24.5557C5.52656 22.778 4.54341 22.3053 4.54341 22.3053C3.18245 21.3508 4.64599 21.3704 4.64599 21.3704C6.15227 21.4789 6.94539 22.9553 6.94539 22.9553C8.28325 25.3065 10.4545 24.6268 11.3105 24.2338C11.4451 23.2398 11.8338 22.5613 12.2628 22.1772C8.93107 21.7883 5.42869 20.4696 5.42869 14.5765C5.42869 12.8974 6.01466 11.5254 6.97421 10.4483C6.81846 10.061 6.30503 8.49671 7.11952 6.37826C7.11952 6.37826 8.37913 5.96492 11.2456 7.95475C12.4421 7.61398 13.7254 7.44309 15.0001 7.43723C16.2749 7.44309 17.5591 7.61398 18.7579 7.95475C21.6209 5.96492 22.8787 6.37826 22.8787 6.37826C23.6952 8.49671 23.1815 10.061 23.0258 10.4483C23.9876 11.5254 24.5696 12.8974 24.5696 14.5765C24.5696 20.4836 21.0605 21.7843 17.7203 22.165C18.2583 22.6423 18.7377 23.5782 18.7377 25.0131C18.7377 27.071 18.7203 28.7272 18.7203 29.2337C18.7203 29.643 18.9904 30.1226 19.7507 29.9715C25.7075 27.9356 30 22.1726 30 15.3798C30 6.88559 23.2841 0 15.0001 0Z" fill="white"/>
<path d="M5.72544 21.9764C5.69246 22.0521 5.57544 22.0748 5.46883 22.0228C5.36023 21.9732 5.29924 21.87 5.33445 21.7941C5.36668 21.7162 5.48395 21.6945 5.5923 21.7467C5.70114 21.7964 5.76312 21.9005 5.72544 21.9764Z" fill="black"/>
<path d="M6.33187 22.6644C6.26047 22.7317 6.12088 22.7004 6.02617 22.594C5.92824 22.4879 5.90989 22.3459 5.98229 22.2775C6.05592 22.2102 6.1913 22.2417 6.28948 22.3479C6.38741 22.4553 6.4065 22.5963 6.33187 22.6644Z" fill="black"/>
<path d="M6.92231 23.5414C6.83057 23.6062 6.68057 23.5454 6.58784 23.41C6.49611 23.2746 6.49611 23.1122 6.58983 23.0471C6.6828 22.9821 6.83057 23.0406 6.92454 23.175C7.01602 23.3127 7.01602 23.4751 6.92231 23.5414Z" fill="black"/>
<path d="M7.73098 24.3887C7.64891 24.4808 7.47412 24.456 7.34619 24.3305C7.21528 24.2076 7.17883 24.0334 7.26114 23.9414C7.3442 23.8491 7.51999 23.875 7.64891 23.9996C7.77883 24.1222 7.8185 24.2977 7.73098 24.3887Z" fill="black"/>
<path d="M8.84675 24.8807C8.81055 25 8.6422 25.0542 8.47261 25.0035C8.30327 24.9513 8.19245 24.8116 8.22666 24.6911C8.26187 24.571 8.43096 24.5145 8.60179 24.5688C8.77088 24.6207 8.88195 24.7594 8.84675 24.8807Z" fill="black"/>
<path d="M10.0721 24.972C10.0763 25.0976 9.93251 25.2017 9.7545 25.204C9.57549 25.208 9.43069 25.1064 9.42871 24.9828C9.42871 24.856 9.56929 24.7528 9.7483 24.7498C9.92631 24.7463 10.0721 24.8472 10.0721 24.972Z" fill="black"/>
<path d="M11.2123 24.7745C11.2337 24.8971 11.1099 25.0229 10.9332 25.0564C10.7594 25.0887 10.5984 25.0131 10.5764 24.8915C10.5548 24.7659 10.6808 24.6401 10.8543 24.6076C11.0313 24.5763 11.1898 24.6499 11.2123 24.7745Z" fill="black"/>
</svg>
