<?xml version="1.0" encoding="UTF-8"?>
<svg version="1.1" xmlns="http://www.w3.org/2000/svg" width="693" height="200">
<path d="M0 0 C2.97 0 5.94 0 9 0 C9.77267674 6.96374913 7.09667297 11.81529384 4 17.9375 C3.52304687 18.90751953 3.04609375 19.87753906 2.5546875 20.87695312 C1.38192573 23.25765953 0.19689392 25.63135967 -1 28 C-0.01 27.505 -0.01 27.505 1 27 C2.4375 27 3.875 27 5.3125 27 C8.35424853 26.70312534 9.55806875 26.536873 11.52734375 24.14453125 C12.35230893 22.57103537 13.13959054 20.97728193 13.890625 19.3671875 C15.49904952 15.93512673 17.28216229 13.64989177 20 11 C22.6875 10.5 22.6875 10.5 25 11 C25.99 11.99 25.99 11.99 27 13 C26.67576288 17.49481658 25.27702743 20.86091267 23.1875 24.8125 C21.01014579 29.02239626 18.95507991 33.22912957 17.07421875 37.578125 C16.23190056 39.47716965 15.35152253 41.35934011 14.45703125 43.234375 C13.91433594 44.37390625 13.37164063 45.5134375 12.8125 46.6875 C12.30332031 47.74324219 11.79414062 48.79898438 11.26953125 49.88671875 C10.01540955 52.96221104 9.40884441 55.71446725 9 59 C9.64066406 58.45730469 10.28132812 57.91460937 10.94140625 57.35546875 C21.6706753 48.48103608 21.6706753 48.48103608 28.8125 47.6875 C31 48 31 48 33 50 C33.5318651 54.78678591 32.49174746 57.01320406 30 61 C29.62276671 62.99218628 29.28404139 64.99240651 29 67 C29.70382812 66.50628906 30.40765625 66.01257813 31.1328125 65.50390625 C39.12304019 60.31964625 45.5219961 58.90185499 55 59 C55 59.99 55 60.98 55 62 C53.9378125 62.51949219 52.875625 63.03898437 51.78125 63.57421875 C50.35379837 64.27789922 48.92674025 64.98237829 47.5 65.6875 C46.76257568 66.05037109 46.02515137 66.41324219 45.26538086 66.78710938 C41.51404486 68.65634461 37.98832517 70.56899522 34.5625 73 C31.07910364 75.29130072 28.09678262 75.52703409 23.98046875 75.46875 C21.47312426 74.87529568 20.535521 74.05054046 19 72 C18.57003073 67.35633186 19.17630148 64.22865554 21 60 C13.89599304 65.10128159 7.25290149 70.31499389 1.09863281 76.54418945 C-1.20340845 78.77873506 -2.55629818 79.94088124 -5.78515625 80.37109375 C-8 80 -8 80 -9 79 C-9.01509675 71.9187377 -7.16978649 65.8268048 -4.4375 59.375 C-4.086875 58.52196289 -3.73625 57.66892578 -3.375 56.79003906 C0.02275342 48.66142791 3.90558133 40.79681854 8 33 C3.71 33.66 -0.58 34.32 -5 35 C-5.37125 36.794375 -5.37125 36.794375 -5.75 38.625 C-8.05252404 48.91390114 -11.21312365 58.88071968 -14.828125 68.77734375 C-16.30061133 72.82668117 -17.65873359 76.90560781 -19 81 C-20.65614657 81.38218767 -22.32457024 81.71395102 -24 82 C-25.54236225 80.45763775 -25.16936074 79.01543321 -25.1875 76.875 C-25.15299853 72.56231637 -24.38536313 69.06950421 -23 65 C-23.70125 65.44730469 -24.4025 65.89460938 -25.125 66.35546875 C-27.09691841 67.61203089 -29.07237393 68.86305438 -31.05078125 70.109375 C-32.80014834 71.23082357 -34.5341577 72.37793295 -36.23046875 73.578125 C-41.01381812 76.90069103 -44.15684537 77.89132867 -50 77 C-51.73046875 74.96484375 -51.73046875 74.96484375 -53 73 C-53.61746094 73.28875 -54.23492188 73.5775 -54.87109375 73.875 C-60.66327213 76.4140371 -65.65322481 78.03409779 -72 77 C-74.5625 75.9375 -74.5625 75.9375 -76 74 C-77.08207118 67.50757293 -74.41256278 61.95601435 -72 56 C-83.04393905 63.9632591 -83.04393905 63.9632591 -92 74 C-95.5 74.3125 -95.5 74.3125 -99 74 C-101 72 -101 72 -101.046875 69.42578125 C-100.50294695 63.72169365 -99.85183982 58.43206348 -98 53 C-104.07291173 57.59106835 -109.60486836 62.12584203 -114.5 68 C-116.86584362 70.83901234 -119.3894242 73.3894242 -122 76 C-122.66 76.99 -123.32 77.98 -124 79 C-127.0625 79.25 -127.0625 79.25 -130 79 C-131 78 -131 78 -131.25 74.5 C-131.21483269 69.64691071 -129.74378145 65.48400943 -128 61 C-134.26933162 61.55727392 -140.53985326 62.75643321 -146 66 C-147.56596524 68.34039067 -148.51506036 70.66221117 -149.5703125 73.26953125 C-153.48622302 80.7482784 -161.96474473 86.50941153 -169 91 C-169.66 91 -170.32 91 -171 91 C-171.495 92.485 -171.495 92.485 -172 94 C-174.40233189 95.40136027 -176.74361772 96.62754485 -179.25 97.8125 C-179.97364746 98.1628833 -180.69729492 98.5132666 -181.44287109 98.87426758 C-183.62402645 99.92600736 -185.81174349 100.96313737 -188 102 C-189.14210938 102.55429688 -190.28421875 103.10859375 -191.4609375 103.6796875 C-215.0167226 114.90503694 -215.0167226 114.90503694 -227 112 C-228.27872373 108.48350975 -228.05248332 107.1232217 -226.5625 103.625 C-224.31630188 100.06021459 -221.48375313 97.59688101 -218.24609375 94.94140625 C-215.78644891 92.81541758 -213.64960639 90.50641902 -211.4375 88.125 C-205.38445361 82.02574714 -198.50620555 78.04533751 -191 74 C-190.02836914 73.46995361 -190.02836914 73.46995361 -189.03710938 72.92919922 C-181.48812767 68.85177066 -173.83320906 65.38512392 -165.75 62.5 C-164.67709717 62.11678589 -164.67709717 62.11678589 -163.58251953 61.72583008 C-160.17041763 60.56159046 -157.64842757 60 -154 60 C-155.52963267 55.79351016 -156.99597779 53.67661083 -160.9375 51.6875 C-168.71155802 48.13749662 -176.63700492 48.56484081 -185 49.5 C-201.31933744 51.2642527 -201.31933744 51.2642527 -208 47 C-209.6875 44.4375 -209.6875 44.4375 -210 41 C-207.34942437 28.21097257 -195.35817616 18.01534931 -185 11 C-176.34450145 5.81852013 -168.12624967 1.94281347 -157.875 1.75 C-156.63363281 1.71132813 -156.63363281 1.71132813 -155.3671875 1.671875 C-152.42685787 2.07944544 -151.09888817 2.92010629 -149 5 C-148.22668174 10.60655741 -149.15280791 15.0966819 -151.578125 20.2109375 C-153.36720645 22.46203449 -154.43265939 22.71283007 -157.25 23.0625 C-159.10625 23.0315625 -159.10625 23.0315625 -161 23 C-160.125 15.375 -160.125 15.375 -159 12 C-164.3442769 14.30893517 -169.6779268 16.64032731 -175 19 C-175.88042969 19.38929687 -176.76085937 19.77859375 -177.66796875 20.1796875 C-186.25824512 24.20066793 -192.79053085 32.58106171 -197 41 C-196.38705078 40.98428955 -195.77410156 40.9685791 -195.14257812 40.95239258 C-163.14463805 40.24338811 -163.14463805 40.24338811 -151 48 C-148.488656 50.709608 -147.16714251 52.49857248 -146 56 C-144.98679687 55.855625 -143.97359375 55.71125 -142.9296875 55.5625 C-141.57815455 55.37478709 -140.22659036 55.18729904 -138.875 55 C-138.20984375 54.90460937 -137.5446875 54.80921875 -136.859375 54.7109375 C-132.87371019 54.16388547 -129.02140062 53.89977818 -125 54 C-124.87625 53.05125 -124.7525 52.1025 -124.625 51.125 C-124 48 -124 48 -122 46 C-118.875 45.875 -118.875 45.875 -116 46 C-115.01 48.64 -114.02 51.28 -113 54 C-111.453125 52.63875 -111.453125 52.63875 -109.875 51.25 C-101.49583557 44.14958356 -101.49583557 44.14958356 -96.25 43.625 C-93 44 -93 44 -91 46 C-90.69940057 48.36509361 -90.50484988 50.74441881 -90.375 53.125 C-90.26285156 55.04699219 -90.26285156 55.04699219 -90.1484375 57.0078125 C-90.09945312 57.99523438 -90.05046875 58.98265625 -90 60 C-88.58847656 58.75283203 -88.58847656 58.75283203 -87.1484375 57.48046875 C-85.89091381 56.38248164 -84.63308508 55.28484382 -83.375 54.1875 C-82.75753906 53.64029297 -82.14007812 53.09308594 -81.50390625 52.52929688 C-75.18715612 47.04369807 -70.43683672 44.42801107 -62 45 C-61 46 -61 46 -60.6875 49.5625 C-60.73170266 53.69544872 -61.92197298 56.40275581 -63.91015625 59.96875 C-65.63606302 63.1854938 -66.77362722 66.56615623 -68 70 C-65.57780704 69.09619666 -63.16301455 68.17773942 -60.75 67.25 C-60.06808594 66.99734375 -59.38617187 66.7446875 -58.68359375 66.484375 C-51.57725775 63.72463286 -48.78105919 60.04049844 -45.25 53.25 C-44.93417969 52.64800781 -44.61835937 52.04601563 -44.29296875 51.42578125 C-43.52202105 49.953972 -42.76007676 48.47745258 -42 47 C-39.69 47 -37.38 47 -35 47 C-34.0732878 50.57975686 -33.77468571 52.45808654 -35.21484375 55.921875 C-35.78332031 56.85515625 -36.35179687 57.7884375 -36.9375 58.75 C-39.22564986 62.15492956 -39.22564986 62.15492956 -40 66 C-39.13117188 65.57847656 -38.26234375 65.15695313 -37.3671875 64.72265625 C-36.21476563 64.17480469 -35.06234375 63.62695312 -33.875 63.0625 C-32.73804688 62.51722656 -31.60109375 61.97195312 -30.4296875 61.41015625 C-27.21813339 60.0896881 -24.43290921 59.41215779 -21 59 C-20.90203125 58.40574219 -20.8040625 57.81148437 -20.703125 57.19921875 C-19.49358084 50.49459034 -17.48174328 44.33687847 -15 38 C-15.60328125 38.2165625 -16.2065625 38.433125 -16.828125 38.65625 C-17.62734375 38.9346875 -18.4265625 39.213125 -19.25 39.5 C-20.03890625 39.7784375 -20.8278125 40.056875 -21.640625 40.34375 C-24 41 -24 41 -28 41 C-27.67 38.69 -27.34 36.38 -27 34 C-25.25183142 33.49363393 -23.50137737 32.99515381 -21.75 32.5 C-20.77546875 32.2215625 -19.8009375 31.943125 -18.796875 31.65625 C-16 31 -16 31 -12 31 C-11.66355469 29.13021484 -11.66355469 29.13021484 -11.3203125 27.22265625 C-9.99341643 21.25162394 -7.47790064 15.94587937 -4.875 10.4375 C-4.17310547 8.92446289 -4.17310547 8.92446289 -3.45703125 7.38085938 C-2.31256834 4.91676066 -1.16013922 2.4567466 0 0 Z M-172 74 C-173.2269046 74.55551053 -174.45480966 75.10881561 -175.68359375 75.66015625 C-188.96233831 81.77367891 -199.86628688 90.6525368 -211 100 C-207.38487643 101.80756179 -203.71576534 99.73677599 -200.0390625 98.5546875 C-184.21940571 92.77397081 -168.38201978 83.41620162 -158 70 C-163.13392814 68.28869062 -167.3288314 71.72178093 -172 74 Z " fill="#EBEBEB" transform="translate(638,0)"/>
<path d="M0 0 C2.5625 0.8125 2.5625 0.8125 4.38671875 2.3828125 C7.22428577 4.24735384 8.60848005 3.95146983 11.9375 3.5 C25.39878632 2.02613653 41.68687743 1.06257356 53.5625 8.8125 C59.1064577 13.87014562 62.92582325 19.22395833 64.25 26.6875 C63.97355245 36.23307114 56.83669804 46.1744159 51.5625 53.8125 C52.408125 53.668125 53.25375 53.52375 54.125 53.375 C60.35242186 52.35596733 66.25294585 51.5650665 72.5625 51.8125 C72.86994141 50.74708984 72.86994141 50.74708984 73.18359375 49.66015625 C73.58771484 48.28150391 73.58771484 48.28150391 74 46.875 C74.26683594 45.95847656 74.53367188 45.04195312 74.80859375 44.09765625 C75.5625 41.8125 75.5625 41.8125 76.5625 40.8125 C79.4375 40.4375 79.4375 40.4375 82.5625 40.8125 C84.4375 43.3125 84.4375 43.3125 85.5625 45.8125 C86.20316406 45.5959375 86.84382812 45.379375 87.50390625 45.15625 C92.7363082 43.47190004 97.0690595 42.45423214 102.5625 42.8125 C102.5625 44.1325 102.5625 45.4525 102.5625 46.8125 C100.96921875 47.55693359 100.96921875 47.55693359 99.34375 48.31640625 C86.16865659 54.01866596 86.16865659 54.01866596 77.30859375 64.625 C76.62963162 66.54914361 76.00439815 68.49359191 75.44921875 70.45703125 C74.5625 72.8125 74.5625 72.8125 71.5625 74.8125 C68.875 74.4375 68.875 74.4375 66.5625 73.8125 C65.24715506 70.15392468 65.90781691 67.73223519 67 64.0625 C67.28746094 63.07765625 67.57492188 62.0928125 67.87109375 61.078125 C68.09925781 60.33046875 68.32742187 59.5828125 68.5625 58.8125 C51.39208848 60.1021966 51.39208848 60.1021966 37.48046875 68.75 C23.89889231 83.35503535 3.72796306 94.69056713 -14.56738281 102.046875 C-17.06598601 103.06980184 -19.49834664 104.21844096 -21.9375 105.375 C-58.89425422 122.07062404 -58.89425422 122.07062404 -76.5390625 116.1015625 C-78.3803123 115.22020596 -79.98635927 114.26364073 -81.4375 112.8125 C-82.00282881 107.04614616 -81.07009779 104.28338959 -77.4375 99.8125 C-77.00953125 99.28011719 -76.5815625 98.74773437 -76.140625 98.19921875 C-65.56490594 86.34242032 -47.42846575 78.6702203 -32.4375 74.8125 C-32.33824219 73.83023438 -32.23898438 72.84796875 -32.13671875 71.8359375 C-31.5016741 67.41833194 -29.94134568 63.54544039 -28.25 59.4375 C-27.61108458 57.84202375 -26.97441719 56.24564567 -26.33984375 54.6484375 C-25.8600708 53.4413916 -25.8600708 53.4413916 -25.37060547 52.20996094 C-23.93549614 48.52268369 -22.61522987 44.79825055 -21.3125 41.0625 C-21.07104248 40.37051514 -20.82958496 39.67853027 -20.58081055 38.96557617 C-20.10346268 37.5952405 -19.62664772 36.22471906 -19.15039062 34.85400391 C-17.97208721 31.47969804 -16.76744997 28.11486389 -15.5625 24.75 C-15.15257813 23.60402344 -14.74265625 22.45804688 -14.3203125 21.27734375 C-14.02898437 20.46394531 -13.73765625 19.65054687 -13.4375 18.8125 C-18.27667097 19.40900798 -22.44715536 20.84917438 -26.875 22.8125 C-27.56585693 23.11285156 -28.25671387 23.41320312 -28.96850586 23.72265625 C-34.74470439 26.31639975 -40.0897839 29.4597977 -45.30053711 33.0546875 C-48.55961609 35.18306561 -50.30651907 35.81679886 -54.24609375 35.6875 C-57.4375 34.8125 -57.4375 34.8125 -59.4375 32.8125 C-59.4375 31.4925 -59.4375 30.1725 -59.4375 28.8125 C-50.08782268 23.13642471 -40.73048859 18.59682585 -30.4375 14.8125 C-29.62925781 14.51424316 -28.82101563 14.21598633 -27.98828125 13.90869141 C-21.03444966 11.34571528 -21.03444966 11.34571528 -17.7824707 10.17163086 C-17.01507568 9.89327393 -16.24768066 9.61491699 -15.45703125 9.328125 C-14.43766479 8.96122559 -14.43766479 8.96122559 -13.39770508 8.58691406 C-9.1360382 6.90326637 -7.39936635 5.99781487 -5.4375 1.8125 C-2.4375 -0.1875 -2.4375 -0.1875 0 0 Z M0.16796875 16.26171875 C-1.38765133 19.40169067 -2.44505328 22.45406031 -3.4375 25.8125 C-4.25201089 27.75798778 -5.0852769 29.69573421 -5.9375 31.625 C-6.77517725 33.68573956 -7.60828601 35.7483404 -8.4375 37.8125 C-8.91058594 38.96492188 -9.38367188 40.11734375 -9.87109375 41.3046875 C-12.67407813 48.19202054 -15.3218424 55.11830673 -17.8125 62.125 C-18.07538818 62.86065186 -18.33827637 63.59630371 -18.60913086 64.35424805 C-19.96504633 67.99523227 -19.96504633 67.99523227 -20.4375 71.8125 C-14.93838496 71.13182778 -10.01126707 69.38274015 -4.8125 67.5625 C2.49843109 65.06668161 9.81857661 62.81773661 17.3125 60.9375 C18.50673584 60.63344238 18.50673584 60.63344238 19.72509766 60.32324219 C24.37277047 59.19137991 28.888382 58.48563467 33.66259766 58.15185547 C37.08812269 57.53999736 38.46482278 55.46219754 40.5625 52.8125 C41.10519531 52.18214844 41.64789063 51.55179688 42.20703125 50.90234375 C48.112573 43.81312043 54.74986822 34.36827899 54.5625 24.8125 C53.32946955 20.26570022 52.37457777 18.3576072 48.4375 15.71484375 C44.59058788 13.64155325 40.84818692 12.7603609 36.5625 12.0625 C35.88960937 11.93746094 35.21671875 11.81242188 34.5234375 11.68359375 C25.02079791 10.01421112 7.52206552 8.73966545 0.16796875 16.26171875 Z M13.3203125 67.47265625 C12.09513916 67.85059326 10.86996582 68.22853027 9.60766602 68.61791992 C8.30035133 69.03509386 6.9936372 69.45415396 5.6875 69.875 C4.70340652 70.19085556 4.70340652 70.19085556 3.69943237 70.51309204 C0.45511057 71.55792427 -2.784128 72.61683979 -6.01904297 73.69042969 C-8.75460808 74.58834836 -11.49547083 75.43478569 -14.25390625 76.2578125 C-19.36870015 78.01240199 -22.90916559 79.42518922 -25.5546875 84.2578125 C-27.16285504 87.67772965 -28.3147253 91.20528766 -29.4375 94.8125 C-29.9325 95.3075 -29.9325 95.3075 -30.4375 95.8125 C-32.0875 95.8125 -33.7375 95.8125 -35.4375 95.8125 C-35.1075 91.5225 -34.7775 87.2325 -34.4375 82.8125 C-48.76749024 87.91419822 -48.76749024 87.91419822 -61.78125 95.5859375 C-63.57879734 96.91714001 -65.4355968 97.82380495 -67.4375 98.8125 C-71.00277852 101.74861172 -72.22940932 104.38283417 -73.4375 108.8125 C-65.3326656 109.71863055 -58.44595846 108.2885269 -50.6875 106.0625 C-49.35779175 105.68424072 -49.35779175 105.68424072 -48.0012207 105.29833984 C-43.12100528 103.83514236 -38.66013412 102.07430244 -34.15332031 99.70068359 C-32.05621684 98.61513117 -29.90779814 97.79914986 -27.6875 97 C-22.68013664 95.04590698 -18.24134415 92.43549796 -13.64453125 89.66796875 C-10.2847797 87.72414173 -6.86517812 86.00990903 -3.375 84.3125 C6.40011484 79.48953585 15.11105554 73.67799439 23.5625 66.8125 C19.73210115 65.37595521 17.14793061 66.28060747 13.3203125 67.47265625 Z " fill="#F1F1F1" transform="translate(81.4375,2.1875)"/>
<path d="M0 0 C7.35678392 -0.36180905 7.35678392 -0.36180905 10 1.125 C11.53496577 4.00306082 11.42835952 5.75670646 11 9 C10.16886797 11.0044949 9.21948015 12.87978869 8.16796875 14.77734375 C6.91263778 17.16625117 5.88063554 19.62118707 4.83227539 22.10620117 C3.39892798 25.36770773 1.74875715 28.51775185 0.125 31.6875 C-3.2491114 38.34234333 -6.2638252 45.05432551 -9 52 C-8.28714844 51.43410156 -7.57429688 50.86820313 -6.83984375 50.28515625 C2.67311072 43 2.67311072 43 9 43 C10.5625 44.6875 10.5625 44.6875 12 47 C11.84626441 50.45050985 11.24812649 51.7443141 8.8203125 54.24609375 C7.93085938 54.96925781 7.04140625 55.69242188 6.125 56.4375 C2.190327 59.64374229 0.03048097 62.3272044 -2 67 C1.98276089 66.27498285 5.96089157 65.53606596 9.93359375 64.7578125 C12.17156178 64.32334451 14.32626198 63.96761911 16.59765625 63.7421875 C18.88047748 63.55549282 18.88047748 63.55549282 22 62 C23.92913251 59.37937478 25.52603721 56.65811703 27.14453125 53.8359375 C30.93053956 48.0493227 36.49545102 44.21651828 43 42 C49.11251981 41.47305864 49.11251981 41.47305864 52 43.1875 C53 45 53 45 52.8203125 47.32421875 C51.13149909 52.83296725 45.85118733 57.25322515 41.0234375 60.2109375 C37.80660604 61.64221494 34.47308712 62.47377468 31 63 C30.34 64.98 29.68 66.96 29 69 C41.78793904 65.82080922 55.01437733 60.32374844 66 53 C67.32 53 68.64 53 70 53 C69.25094359 57.67654138 66.87423027 59.19613685 63.203125 61.92578125 C59.04259975 64.61997504 54.75038773 66.98731317 50.375 69.3125 C49.56369629 69.7451416 48.75239258 70.1777832 47.91650391 70.62353516 C41.15425289 74.12677028 34.79557456 76.86617495 27 76 C24.0625 74.1875 24.0625 74.1875 22 72 C22 71.01 22 70.02 22 69 C21.47156494 69.176521 20.94312988 69.35304199 20.39868164 69.53491211 C17.95623238 70.34497735 15.50949302 71.1412707 13.0625 71.9375 C12.23169922 72.21529297 11.40089844 72.49308594 10.54492188 72.77929688 C5.21477799 74.50070521 -0.33810189 76.24994944 -6 76 C-6.99 75.34 -7.98 74.68 -9 74 C-9.29296875 71.1796875 -9.29296875 71.1796875 -9.1875 67.875 C-9.14689453 66.23144531 -9.14689453 66.23144531 -9.10546875 64.5546875 C-9.07066406 63.71164063 -9.03585937 62.86859375 -9 62 C-14.51373871 66.79106422 -17.87774785 70.85216894 -20.015625 77.8984375 C-21 80 -21 80 -22.96875 81.3125 C-25.3902066 82.13206993 -26.62547505 81.84804462 -29 81 C-30.71050559 76.02398374 -29.00885647 72.57383705 -27 68 C-27.64066406 68.44472656 -28.28132813 68.88945313 -28.94140625 69.34765625 C-36.8871857 74.54616174 -36.8871857 74.54616174 -41 73.9375 C-45.75342466 72.45205479 -45.75342466 72.45205479 -47.125 69.9375 C-47.558125 68.9784375 -47.558125 68.9784375 -48 68 C-48.67804688 68.5053125 -49.35609375 69.010625 -50.0546875 69.53125 C-55.88010529 73.59774663 -59.92838225 75.79631658 -67.1015625 75.34375 C-69 75 -69 75 -70 74 C-70.76108655 69.65093398 -69.74339165 67.15012398 -67.4375 63.5625 C-64.35081652 59.24692614 -60.91372805 55.5683991 -57 52 C-56.32453125 51.37867188 -55.6490625 50.75734375 -54.953125 50.1171875 C-46.20805013 42.2597706 -46.20805013 42.2597706 -40.8125 41.625 C-39.4203125 41.810625 -39.4203125 41.810625 -38 42 C-36 45 -36 45 -36.375 47.1875 C-36.58125 47.785625 -36.7875 48.38375 -37 49 C-36.01 49.66 -35.02 50.32 -34 51 C-33.21272507 56.37971205 -35.14640906 61.03502427 -37 66 C-35.98679687 65.36771484 -35.98679687 65.36771484 -34.953125 64.72265625 C-34.06109375 64.17480469 -33.1690625 63.62695312 -32.25 63.0625 C-31.36828125 62.51722656 -30.4865625 61.97195312 -29.578125 61.41015625 C-27 60 -27 60 -24.96166992 59.66064453 C-22.86217408 59.18110084 -22.86217408 59.18110084 -21.89086914 57.27270508 C-21.60848389 56.52915771 -21.32609863 55.78561035 -21.03515625 55.01953125 C-20.71272949 54.19211426 -20.39030273 53.36469727 -20.05810547 52.51220703 C-19.72955566 51.62130371 -19.40100586 50.73040039 -19.0625 49.8125 C-18.53873779 48.44907471 -18.53873779 48.44907471 -18.00439453 47.05810547 C-15.63299289 40.84373827 -13.4064612 34.58046627 -11.21484375 28.30078125 C-9.47329078 23.56890904 -7.44540541 18.97398911 -5.42578125 14.35546875 C-3.42137437 9.63824818 -1.67952479 4.84098322 0 0 Z M-49.5 55.75 C-50.39138672 56.41515625 -50.39138672 56.41515625 -51.30078125 57.09375 C-54.34477322 59.42999666 -56.69397677 61.32251354 -58 65 C-49.0743106 59.57334697 -49.0743106 59.57334697 -41 53 C-41 52.34 -41 51.68 -41 51 C-44.44775783 51 -46.86323616 53.71380059 -49.5 55.75 Z " fill="#EFEFEF" transform="translate(341,0)"/>
<path d="M0 0 C1.67542976 0.28604898 3.34385343 0.61781233 5 1 C5.44144335 10.27031035 3.63181058 16.48731054 -1.25 24.375 C-4.42497009 29.64179474 -6.77323544 34.99608757 -8.9375 40.75 C-9.39721191 41.93795166 -9.39721191 41.93795166 -9.86621094 43.14990234 C-11.74652707 48.32239453 -12.30760291 52.50081333 -12 58 C-8.07513692 57.37802716 -4.88994983 56.15057625 -1.3125 54.4375 C3.79036827 52 3.79036827 52 6 52 C6.17015625 51.45472656 6.3403125 50.90945312 6.515625 50.34765625 C8.32540814 44.71615022 10.50345378 39.36060431 13 34 C15.31 34 17.62 34 20 34 C20.99 36.475 20.99 36.475 22 39 C22.6290625 38.7834375 23.258125 38.566875 23.90625 38.34375 C29.51445928 36.51939276 34.10968596 35.67276033 40 36 C39.71166992 37.875 39.71166992 37.875 39 40 C36.43975252 41.51193392 34.00563812 42.77866544 31.3125 44 C20.91403522 48.4937345 20.91403522 48.4937345 14 57 C13.23637598 59.32723509 12.50932875 61.65446067 11.84375 64.01171875 C11 66 11 66 8 68 C5.9375 67.9375 5.9375 67.9375 4 67 C2.75 64.4375 2.75 64.4375 2 62 C0.865625 62.66 -0.26875 63.32 -1.4375 64 C-5.97758087 66.25394086 -9.99209366 66.96342579 -15 66 C-18.49890004 63.88608123 -19.70578686 62.88263941 -21 59 C-21.12781786 56.32605036 -21.04391871 53.67904143 -21 51 C-21.44988281 51.40089844 -21.89976562 51.80179688 -22.36328125 52.21484375 C-23.74277997 53.43399993 -25.13033181 54.644072 -26.5234375 55.84765625 C-28.25664834 57.35396409 -29.96865674 58.88485799 -31.6640625 60.43359375 C-36.60070925 64.77923349 -40.31205839 67.9540665 -47.02734375 68.29296875 C-49.36685761 67.9455162 -50.98967049 67.23745985 -53 66 C-54.61228372 62.77543257 -54.44607475 59.49643885 -54 56 C-51.2153669 50.06752078 -46.2128827 46.70502407 -41 43 C-40.31292969 42.48695312 -39.62585938 41.97390625 -38.91796875 41.4453125 C-34.08019611 38.06745941 -30.8750953 37.47543792 -25 38 C-24.67 38.99 -24.34 39.98 -24 41 C-19.72261371 36.04291945 -16.6055907 31.75103977 -14.79296875 25.4453125 C-11.91153419 16.55970643 -6.6572775 6.6572775 0 0 Z M-38.88671875 49.6796875 C-41.94427443 53.14543071 -44.13444918 56.75068981 -46 61 C-41.39860359 59.51131293 -38.49772906 57.25370145 -35 54 C-35 53.34 -35 52.68 -35 52 C-34.40703125 51.74476562 -33.8140625 51.48953125 -33.203125 51.2265625 C-30.78775462 49.88183502 -29.48788294 48.50785633 -27.75 46.375 C-27.22921875 45.74335937 -26.7084375 45.11171875 -26.171875 44.4609375 C-25.78515625 43.97882812 -25.3984375 43.49671875 -25 43 C-29.91173855 43 -35.31463098 46.49956795 -38.88671875 49.6796875 Z " fill="#F1F1F1" transform="translate(243,9)"/>
<path d="M0 0 C2 1.1875 2 1.1875 3 3 C2.56263634 8.65720381 -0.6595453 11.22467662 -4.5859375 14.9765625 C-8.94282727 18.62845393 -13.37254173 20.14735481 -19 21 C-19.66 22.98 -20.32 24.96 -21 27 C-8.21206096 23.82080922 5.01437733 18.32374844 16 11 C17.32 11 18.64 11 20 11 C19.25094359 15.67654138 16.87423027 17.19613685 13.203125 19.92578125 C9.04259975 22.61997504 4.75038773 24.98731317 0.375 27.3125 C-0.43630371 27.7451416 -1.24760742 28.1777832 -2.08349609 28.62353516 C-8.84574711 32.12677028 -15.20442544 34.86617495 -23 34 C-25.9375 32.1875 -25.9375 32.1875 -28 30 C-28 29.01 -28 28.02 -28 27 C-28.79265259 27.26478149 -28.79265259 27.26478149 -29.60131836 27.53491211 C-32.04376762 28.34497735 -34.49050698 29.1412707 -36.9375 29.9375 C-38.18370117 30.35418945 -38.18370117 30.35418945 -39.45507812 30.77929688 C-44.78522201 32.50070521 -50.33810189 34.24994944 -56 34 C-56.99 33.34 -57.98 32.68 -59 32 C-59.36328125 29.57421875 -59.36328125 29.57421875 -59.3125 26.6875 C-59.30863281 25.74261719 -59.30476563 24.79773438 -59.30078125 23.82421875 C-58.9823657 20.83442077 -58.40599292 18.65680936 -57 16 C-56.01 15.67 -55.02 15.34 -54 15 C-54.32742188 15.70511719 -54.65484375 16.41023438 -54.9921875 17.13671875 C-56.08400722 20.23867167 -56.20385396 22.54006053 -56.125 25.8125 C-56.10695313 26.78832031 -56.08890625 27.76414062 -56.0703125 28.76953125 C-56.04710937 29.50558594 -56.02390625 30.24164063 -56 31 C-50.06049238 31.53995524 -45.47058189 30.00225806 -39.88671875 28.01953125 C-37.5384176 27.19015831 -35.21461259 26.46131804 -32.8125 25.8125 C-30.11856781 25.27959359 -30.11856781 25.27959359 -29 24 C-30.9169986 24.31045732 -32.83358723 24.62344671 -34.75 24.9375 C-35.81734375 25.11152344 -36.8846875 25.28554687 -37.984375 25.46484375 C-40.86726722 25.93339318 -40.86726722 25.93339318 -43.125 26.5625 C-45.22496662 27.05249221 -47.09692304 27.09838462 -49.25 27.0625 C-51.10625 27.0315625 -51.10625 27.0315625 -53 27 C-53.6875 24.74609375 -53.6875 24.74609375 -54 22 C-52.8125 19.97265625 -52.8125 19.97265625 -51 18.0625 C-50.35675781 17.37929688 -49.71351563 16.69609375 -49.05078125 15.9921875 C-46.62613533 13.63681718 -44.12145768 11.43338382 -41.48046875 9.32421875 C-39.73573635 7.87482394 -39.73573635 7.87482394 -38 5 C-38.29792706 8.39040997 -38.77211227 9.76516945 -41.1796875 12.24609375 C-42.06914062 12.96925781 -42.95859375 13.69242188 -43.875 14.4375 C-47.809673 17.64374229 -49.96951903 20.3272044 -52 25 C-48.01723911 24.27498285 -44.03910843 23.53606596 -40.06640625 22.7578125 C-37.82843822 22.32334451 -35.67373802 21.96761911 -33.40234375 21.7421875 C-31.11952252 21.55549282 -31.11952252 21.55549282 -28 20 C-26.07086749 17.37937478 -24.47396279 14.65811703 -22.85546875 11.8359375 C-17.69401416 3.94706164 -9.46265453 -0.87617172 0 0 Z " fill="#E9E9E9" transform="translate(391,42)"/>
<path d="M0 0 C0 1.32 0 2.64 0 4 C-1.5159375 4.804375 -1.5159375 4.804375 -3.0625 5.625 C-9.60485831 9.38619384 -13.92781295 13.62999935 -18 20 C-15.72357051 18.42424168 -13.454014 16.83990933 -11.1875 15.25 C-10.22360352 14.58484375 -10.22360352 14.58484375 -9.24023438 13.90625 C-5.85097453 11.51796327 -3.44495427 9.38532129 -1 6 C1.6875 5.75 1.6875 5.75 4 6 C5.02362719 8.66389725 5.10424058 9.73558487 4.0390625 12.4375 C3.57242188 13.283125 3.10578125 14.12875 2.625 15 C0.90727638 18.14756061 -0.11633002 20.46532009 -1 24 C1.64 23.34 4.28 22.68 7 22 C6.34 23.65 5.68 25.3 5 27 C3.54364629 27.22174933 2.08477044 27.42698698 0.625 27.625 C-0.59316406 27.79902344 -0.59316406 27.79902344 -1.8359375 27.9765625 C-2.55007813 27.98429687 -3.26421875 27.99203125 -4 28 C-6 26 -6 26 -6.125 22.875 C-6.08375 21.92625 -6.0425 20.9775 -6 20 C-6.65226562 20.47050781 -7.30453125 20.94101563 -7.9765625 21.42578125 C-20.9349687 30.65721221 -20.9349687 30.65721221 -28 30 C-29 29 -29 29 -29.5 26.5 C-28.11924049 16.83468343 -17.19676284 8.98096095 -10 3 C-6.3969893 0.57881864 -4.37036279 -0.37460253 0 0 Z " fill="#F8F8F8" transform="translate(302,44)"/>
<path d="M0 0 C-0.33 2.31 -0.66 4.62 -1 7 C-0.46890625 6.72285156 0.0621875 6.44570313 0.609375 6.16015625 C1.31578125 5.79792969 2.0221875 5.43570313 2.75 5.0625 C3.44609375 4.70285156 4.1421875 4.34320313 4.859375 3.97265625 C8.37918068 2.37332849 11.39872444 1.87331207 15.25 1.9375 C17.10625 1.9684375 17.10625 1.9684375 19 2 C17.51339419 4.97321161 15.36876886 5.19459604 12.3125 6.375 C4.02910528 9.76098481 -1.03046425 12.87596806 -5 21 C-5.83824474 23.35685853 -6.57842193 25.70139081 -7.2265625 28.1171875 C-8 30 -8 30 -11 32 C-13.0625 31.9375 -13.0625 31.9375 -15 31 C-16.25 28.4375 -16.25 28.4375 -17 26 C-18.134375 26.66 -19.26875 27.32 -20.4375 28 C-24.96391571 30.24715674 -29.00594223 30.98741827 -34 30 C-37.0625 28 -37.0625 28 -39 26 C-38.505 24.515 -38.505 24.515 -38 23 C-37.690625 23.639375 -37.38125 24.27875 -37.0625 24.9375 C-34.32143894 27.67856106 -32.27760503 27.97355432 -28.47265625 28.21484375 C-22.99102307 27.73855651 -18.84302116 25.08466172 -15.2421875 21.01171875 C-11.19627922 15.28848669 -8.00090665 8.64648533 -6.51953125 1.76953125 C-6.34808594 1.18558594 -6.17664063 0.60164063 -6 0 C-3.50907189 -1.24546405 -2.58919267 -0.7767578 0 0 Z " fill="#EBEBEB" transform="translate(262,45)"/>
<path d="M0 0 C2.125 0.375 2.125 0.375 4 1 C3.6613005 6.41919195 2.30746555 9.59244652 -0.84375 14.0078125 C-2.18487676 16.31853766 -2.6001552 18.37374665 -3 21 C-2.50072998 20.75765625 -2.00145996 20.5153125 -1.48706055 20.265625 C0.77659084 19.17103128 3.04444564 18.08543911 5.3125 17 C6.09818359 16.6184375 6.88386719 16.236875 7.69335938 15.84375 C8.45068359 15.4828125 9.20800781 15.121875 9.98828125 14.75 C10.68477783 14.41484375 11.38127441 14.0796875 12.09887695 13.734375 C14 13 14 13 17 13 C15.50374264 17.33914634 12.98141129 18.05374019 9 20 C5.68264381 22.08280587 2.39967803 24.21222461 -0.87890625 26.35546875 C-4.00695994 28.00366725 -5.54484739 28.56472617 -9 28 C-11.57449581 25.42550419 -11.2763761 23.58662853 -11.36328125 20.0703125 C-10.89276278 17.38886313 -9.6786598 16.13362367 -8 14 C-6.94494826 11.97580404 -5.92584995 9.93258787 -4.9375 7.875 C-2.22117647 2.22117647 -2.22117647 2.22117647 0 0 Z " fill="#F8F8F8" transform="translate(598,48)"/>
<path d="M0 0 C2 3 2 3 2.0625 4.9375 C0.66299951 7.65417743 -1.29672482 8.47781371 -3.9453125 9.8515625 C-7.55227836 11.86762327 -10.74647558 14.46478617 -14 17 C-14.66 16.67 -15.32 16.34 -16 16 C-11.26638344 11.62294157 -6.7266425 7.9826263 -1 5 C-1 4.34 -1 3.68 -1 3 C-8.09682885 2.53663317 -11.67781661 7.01231394 -16.8203125 11.4140625 C-25.43919567 18.46201934 -25.43919567 18.46201934 -29.25 28.375 C-29.1675 29.24125 -29.085 30.1075 -29 31 C-22.90252405 31.78172769 -18.93662185 29.21517991 -14 26 C-12.32294092 24.679762 -10.65191491 23.35156675 -9 22 C-8.34 22 -7.68 22 -7 22 C-6.34 24.31 -5.68 26.62 -5 29 C1.8746471 28.78175723 5.64751175 27.40354057 11.15234375 23.27734375 C13 22 13 22 15 22 C13.23478261 28.55652174 13.23478261 28.55652174 11.875 31.125 C10.73882563 33.55965936 10.72052617 35.34499865 11 38 C11.66 38.66 12.32 39.32 13 40 C11.68 39.67 10.36 39.34 9 39 C7.28949441 34.02398374 8.99114353 30.57383705 11 26 C10.35933594 26.44472656 9.71867187 26.88945313 9.05859375 27.34765625 C1.1128143 32.54616174 1.1128143 32.54616174 -3 31.9375 C-7.75342466 30.45205479 -7.75342466 30.45205479 -9.125 27.9375 C-9.41375 27.298125 -9.7025 26.65875 -10 26 C-10.67804688 26.5053125 -11.35609375 27.010625 -12.0546875 27.53125 C-17.88010529 31.59774663 -21.92838225 33.79631658 -29.1015625 33.34375 C-31 33 -31 33 -32 32 C-32.76108655 27.65093398 -31.74339165 25.15012398 -29.4375 21.5625 C-26.35081652 17.24692614 -22.91372805 13.5683991 -19 10 C-17.98679687 9.06800781 -17.98679687 9.06800781 -16.953125 8.1171875 C-6.8956461 -0.91941948 -6.8956461 -0.91941948 0 0 Z " fill="#969696" transform="translate(303,42)"/>
<path d="M0 0 C3.4454191 3.23008041 4.56248691 5.92154775 4.75 10.609375 C4.49261284 21.54832935 -2.9889051 30.15175371 -9.75 38.109375 C-10.76014042 39.43504242 -11.76373214 40.76585221 -12.75 42.109375 C-13.74 41.779375 -14.73 41.449375 -15.75 41.109375 C-15.09 40.51125 -14.43 39.913125 -13.75 39.296875 C-5.77834144 31.27979389 1.81869493 20.75461188 2.25 9.109375 C1.78644413 5.31716019 1.78644413 5.31716019 0.25 2.109375 C-1.80570224 0.68155632 -1.80570224 0.68155632 -4.75 0.109375 C-5.41773438 -0.13425781 -6.08546875 -0.37789062 -6.7734375 -0.62890625 C-20.56329091 -5.46222696 -34.59943213 -3.73370219 -48.75 -1.890625 C-49.01941406 -1.20742188 -49.28882812 -0.52421875 -49.56640625 0.1796875 C-50.89500477 3.46829769 -52.28645873 6.72597368 -53.6875 9.984375 C-54.19152344 11.15742188 -54.69554688 12.33046875 -55.21484375 13.5390625 C-56.23058541 15.90137263 -57.2500615 18.26208086 -58.2734375 20.62109375 C-59.73423747 24.07213708 -61.10197388 27.54563084 -62.4375 31.046875 C-62.87449219 32.19027344 -63.31148438 33.33367188 -63.76171875 34.51171875 C-64.08785156 35.36894531 -64.41398437 36.22617187 -64.75 37.109375 C-66.05973249 33.18017754 -65.09412908 31.78425241 -63.5625 27.984375 C-62.86253906 26.23833984 -62.86253906 26.23833984 -62.1484375 24.45703125 C-60.72308097 21.04493475 -59.25255995 17.66136135 -57.71875 14.296875 C-56.64071105 11.86259351 -55.6609472 9.3997406 -54.6875 6.921875 C-54.34589844 6.09300781 -54.00429687 5.26414062 -53.65234375 4.41015625 C-52.64165157 1.94063419 -52.64165157 1.94063419 -51.75 -1.390625 C-48.84965291 -5.01605887 -46.1672456 -5.11507212 -41.65625 -5.640625 C-11.05339321 -7.59920783 -11.05339321 -7.59920783 0 0 Z " fill="#9E9E9E" transform="translate(132.75,17.890625)"/>
<path d="M0 0 C2.5625 0.8125 2.5625 0.8125 4.38671875 2.3828125 C7.22428577 4.24735384 8.60848005 3.95146983 11.9375 3.5 C25.39878632 2.02613653 41.68687743 1.06257356 53.5625 8.8125 C59.1064577 13.87014562 62.92582325 19.22395833 64.25 26.6875 C63.97355245 36.23307114 56.83669804 46.1744159 51.5625 53.8125 C53.0475 54.8025 53.0475 54.8025 54.5625 55.8125 C51.0975 56.3075 51.0975 56.3075 47.5625 56.8125 C48.85103931 54.19162552 50.20439131 51.63146701 51.65625 49.09765625 C52.04683594 48.41123047 52.43742187 47.72480469 52.83984375 47.01757812 C53.65326696 45.59213841 54.46836531 44.16765327 55.28515625 42.74414062 C59.23977029 35.78114858 61.95780856 29.99022148 60.5625 21.8125 C58.13596752 16.60235334 54.60039023 11.66000317 49.5625 8.8125 C39.87861817 5.39007569 30.59118421 5.53320528 20.5 5.8125 C17.55081789 5.89238755 14.60219814 5.95211255 11.65234375 6 C10.36191162 6.03480469 9.07147949 6.06960937 7.74194336 6.10546875 C4.25929369 5.78456116 3.70589149 5.37599118 1.5625 2.8125 C-1.49020463 2.65438612 -1.49020463 2.65438612 -4.4375 3.8125 C-4.89125 4.59625 -5.345 5.38 -5.8125 6.1875 C-8.16450174 9.98688743 -11.20878219 10.77588824 -15.4375 11.8125 C-18.4375 12 -18.4375 12 -20.4375 11.8125 C-17.00204694 9.52219796 -13.5936585 8.36340415 -9.71484375 7.0078125 C-7.01121666 5.58875609 -6.63940237 4.53681204 -5.4375 1.8125 C-2.4375 -0.1875 -2.4375 -0.1875 0 0 Z " fill="#949494" transform="translate(81.4375,2.1875)"/>
<path d="M0 0 C2.85793316 2.85793316 2.40799941 5.14665584 2.625 9.125 C2.69976563 10.40632813 2.77453125 11.68765625 2.8515625 13.0078125 C2.90054688 13.99523438 2.94953125 14.98265625 3 16 C3.94101562 15.16855469 4.88203125 14.33710937 5.8515625 13.48046875 C7.10908619 12.38248164 8.36691492 11.28484382 9.625 10.1875 C10.24246094 9.64029297 10.85992188 9.09308594 11.49609375 8.52929688 C17.81284388 3.04369807 22.56316328 0.42801107 31 1 C32 2 32 2 32.3125 5.5625 C32.27516029 9.73707932 31.03047025 12.50029096 29.0234375 16.1015625 C27.6609265 18.6289684 26.82300778 21.25664074 26 24 C25.67 24 25.34 24 25 24 C25.37387338 19.60698781 26.19208427 16.35414032 28.125 12.375 C29.53589204 9.40603653 30.02368832 8.29018194 29.75 4.9375 C29.5025 4.298125 29.255 3.65875 29 3 C19.76869867 3.73850411 14.2430062 9.36141454 7.59179688 15.19726562 C5.06914752 17.37685833 3.19658406 18.93447198 0 20 C0 14.39 0 8.78 0 3 C-5.5793813 1.43338944 -5.5793813 1.43338944 -8.4921875 3.37109375 C-9.27851562 4.05300781 -10.06484375 4.73492187 -10.875 5.4375 C-11.72835937 6.16839844 -12.58171875 6.89929687 -13.4609375 7.65234375 C-16.55327973 10.51157095 -19.52429924 13.46031886 -22.40625 16.53125 C-24 18 -24 18 -26 18 C-25.125 12.125 -25.125 12.125 -24 11 C-23.95907063 8.66702567 -23.95758277 6.33294775 -24 4 C-25.32 4 -26.64 4 -28 4 C-28.391875 5.134375 -28.78375 6.26875 -29.1875 7.4375 C-31 11 -31 11 -33.1875 11.9375 C-36.79742304 12.01772051 -40.38894959 12.06120424 -44 12 C-44 11.67 -44 11.34 -44 11 C-38.06 10.505 -38.06 10.505 -32 10 C-31.87625 9.05125 -31.7525 8.1025 -31.625 7.125 C-31 4 -31 4 -29 2 C-25.875 1.875 -25.875 1.875 -23 2 C-22.01 4.64 -21.02 7.28 -20 10 C-18.96875 9.0925 -17.9375 8.185 -16.875 7.25 C-7.32227659 -0.84487807 -7.32227659 -0.84487807 0 0 Z " fill="#979797" transform="translate(545,44)"/>
<path d="M0 0 C1.546875 0.185625 1.546875 0.185625 3.125 0.375 C5 2.875 5 2.875 6.125 5.375 C6.76566406 5.1584375 7.40632813 4.941875 8.06640625 4.71875 C13.2988082 3.03440004 17.6315595 2.01673214 23.125 2.375 C23.125 3.695 23.125 5.015 23.125 6.375 C21.53171875 7.11943359 21.53171875 7.11943359 19.90625 7.87890625 C6.73115659 13.58116596 6.73115659 13.58116596 -2.12890625 24.1875 C-2.80786838 26.11164361 -3.43310185 28.05609191 -3.98828125 30.01953125 C-4.875 32.375 -4.875 32.375 -7.875 34.375 C-10.5625 34 -10.5625 34 -12.875 33.375 C-14.19034494 29.71642468 -13.52968309 27.29473519 -12.4375 23.625 C-12.00630859 22.14773437 -12.00630859 22.14773437 -11.56640625 20.640625 C-11.33824219 19.89296875 -11.11007813 19.1453125 -10.875 18.375 C-11.865 17.715 -12.855 17.055 -13.875 16.375 C-11.895 16.375 -9.915 16.375 -7.875 16.375 C-8.0915625 17.03886719 -8.308125 17.70273437 -8.53125 18.38671875 C-8.8096875 19.26972656 -9.088125 20.15273438 -9.375 21.0625 C-9.6534375 21.93261719 -9.931875 22.80273438 -10.21875 23.69921875 C-10.87350805 26.36891677 -10.99331495 28.63896684 -10.875 31.375 C-8.91106792 31.23296879 -8.91106792 31.23296879 -6.875 30.375 C-5.76525869 28.29599308 -5.76525869 28.29599308 -5.0625 25.75 C-1.35487107 15.83949376 5.81367622 12.09089165 15.015625 7.7578125 C18.125 6.375 18.125 6.375 21.125 5.375 C15.1356581 4.9394115 11.37416162 5.8074764 6.0078125 8.5 C4.125 9.375 4.125 9.375 2.125 9.375 C2.125 7.065 2.125 4.755 2.125 2.375 C0.475 2.375 -1.175 2.375 -2.875 2.375 C-2.99875 3.2825 -3.1225 4.19 -3.25 5.125 C-3.82047672 8.09147892 -4.1918392 9.91183785 -5.875 12.375 C-11.88607461 14.5203667 -18.55383294 14.61353461 -24.875 14.375 C-19.18479306 11.0921883 -13.25121985 11.26506518 -6.875 11.375 C-6.67003906 10.66472656 -6.46507812 9.95445313 -6.25390625 9.22265625 C-5.98449219 8.30355469 -5.71507812 7.38445313 -5.4375 6.4375 C-5.17066406 5.52097656 -4.90382812 4.60445312 -4.62890625 3.66015625 C-3.54802832 0.38392003 -3.53311118 0.46084059 0 0 Z " fill="#9C9C9C" transform="translate(160.875,42.625)"/>
<path d="M0 0 C-0.98097656 0.40089844 -1.96195313 0.80179687 -2.97265625 1.21484375 C-25.61228567 10.26286046 -25.61228567 10.26286046 -41 28 C-41.16750414 30.66709069 -41.16750414 30.66709069 -41 33 C-30.31248487 38.23470129 -18.74824623 36.81722991 -7.7109375 33.28125 C-5.87402344 32.64703125 -5.87402344 32.64703125 -4 32 C-2.47142807 31.48936206 -0.94277847 30.97895657 0.5859375 30.46875 C2.14144228 29.93989778 3.69614404 29.40867728 5.25 28.875 C5.98976074 28.62153809 6.72952148 28.36807617 7.49169922 28.10693359 C11.60798961 26.66462188 11.60798961 26.66462188 15 24 C16.83984375 23.11328125 16.83984375 23.11328125 18.9375 22.3125 C19.62714844 22.04050781 20.31679688 21.76851562 21.02734375 21.48828125 C23 21 23 21 26 22 C-18.8963575 43.78599059 -18.8963575 43.78599059 -38.1015625 37.2890625 C-39.9428123 36.40770596 -41.54885927 35.45114073 -43 34 C-43.56532881 28.23364616 -42.63259779 25.47088959 -39 21 C-38.57203125 20.46761719 -38.1440625 19.93523437 -37.703125 19.38671875 C-31.28458136 12.19067111 -9.62668947 -3.81391516 0 0 Z " fill="#8F8F8F" transform="translate(43,81)"/>
<path d="M0 0 C2.31 0 4.62 0 7 0 C7.66 1.65 8.32 3.3 9 5 C9.6290625 4.7834375 10.258125 4.566875 10.90625 4.34375 C16.51445928 2.51939276 21.10968596 1.67276033 27 2 C26.44414076 5.66637683 26.44414076 5.66637683 24.48120117 7.14086914 C23.84158447 7.43598389 23.20196777 7.73109863 22.54296875 8.03515625 C21.84236328 8.36966797 21.14175781 8.70417969 20.41992188 9.04882812 C19.68322266 9.38333984 18.94652344 9.71785156 18.1875 10.0625 C11.77143843 12.98886374 11.77143843 12.98886374 6 17 C5.34 16.67 4.68 16.34 4 16 C9.76104728 10.55036068 16.51266673 7.49577776 24 5 C18.04997542 4.6202112 13.54723552 5.92516191 8 8 C7.01 8.33 6.02 8.66 5 9 C5 6.69 5 4.38 5 2 C3.35 2 1.7 2 0 2 C-0.103125 2.639375 -0.20625 3.27875 -0.3125 3.9375 C-3.1595092 16.6196319 -3.1595092 16.6196319 -9 21 C-14.67436169 24.12739629 -19.3999826 26.48431782 -26 26 C-27.62094818 24.37905182 -27.20950959 22.60872115 -27.25 20.375 C-27.20920362 15.60182405 -26.15045715 12.3009143 -24 8 C-23.31163487 6.00736409 -22.63718601 4.00958663 -22 2 C-20.75858994 5.72423019 -21.45285566 6.64334903 -22.9375 10.1875 C-24.84635505 15.12034879 -25.3960328 18.75256538 -25 24 C-21.07513692 23.37802716 -17.88994983 22.15057625 -14.3125 20.4375 C-9.20963173 18 -9.20963173 18 -7 18 C-6.82984375 17.45472656 -6.6596875 16.90945312 -6.484375 16.34765625 C-4.67459186 10.71615022 -2.49654622 5.36060431 0 0 Z " fill="#969696" transform="translate(256,43)"/>
<path d="M0 0 C2.31 0 4.62 0 7 0 C7.9267122 3.57975686 8.22531429 5.45808654 6.78515625 8.921875 C6.21667969 9.85515625 5.64820313 10.7884375 5.0625 11.75 C2.77435014 15.15492956 2.77435014 15.15492956 2 19 C3.30324219 18.36771484 3.30324219 18.36771484 4.6328125 17.72265625 C5.78523437 17.17480469 6.93765625 16.62695312 8.125 16.0625 C9.26195312 15.51722656 10.39890625 14.97195312 11.5703125 14.41015625 C14.78186661 13.0896881 17.56709079 12.41215779 21 12 C21.125 18.625 21.125 18.625 20 22 C19.93062938 24.22818441 19.91542916 26.45834524 19.9375 28.6875 C19.94652344 29.86699219 19.95554687 31.04648438 19.96484375 32.26171875 C19.97644531 33.16535156 19.98804688 34.06898437 20 35 C19.01 34.67 18.02 34.34 17 34 C16.7641604 28.22192976 17.13216954 23.48675196 19 18 C18.34 17.67 17.68 17.34 17 17 C17.66 16.01 18.32 15.02 19 14 C17.89140625 14.49371094 16.7828125 14.98742188 15.640625 15.49609375 C14.17715743 16.14339671 12.71361165 16.79052288 11.25 17.4375 C10.52039063 17.76298828 9.79078125 18.08847656 9.0390625 18.42382812 C8.33007812 18.73642578 7.62109375 19.04902344 6.890625 19.37109375 C6.24125977 19.65911865 5.59189453 19.94714355 4.92285156 20.24389648 C2.96927529 21.01208157 1.04528795 21.53642793 -1 22 C-1.46353651 16.59207408 0.75577677 13.84329367 3.6875 9.5 C5.13675817 6.73950824 5.26315654 5.07015965 5 2 C3.09207274 1.94071495 3.09207274 1.94071495 1 3 C-0.3185217 5.40799063 -1.45043168 7.75143786 -2.5625 10.25 C-5.66056047 16.59474462 -8.32769094 19.94575076 -15.234375 22.34765625 C-19.19629003 23.28217576 -22.93091049 23.79988084 -27 24 C-26.505 22.515 -26.505 22.515 -26 21 C-26 21.66 -26 22.32 -26 23 C-23.57780704 22.09619666 -21.16301455 21.17773942 -18.75 20.25 C-18.06808594 19.99734375 -17.38617187 19.7446875 -16.68359375 19.484375 C-9.57725775 16.72463286 -6.78105919 13.04049844 -3.25 6.25 C-2.93417969 5.64800781 -2.61835937 5.04601563 -2.29296875 4.42578125 C-1.52202105 2.953972 -0.76007676 1.47745258 0 0 Z " fill="#9B9B9B" transform="translate(596,47)"/>
<path d="M0 0 C0.66 0 1.32 0 2 0 C1.67257812 0.70511719 1.34515625 1.41023438 1.0078125 2.13671875 C-0.08400722 5.23867167 -0.20385396 7.54006053 -0.125 10.8125 C-0.10695313 11.78832031 -0.08890625 12.76414062 -0.0703125 13.76953125 C-0.04710937 14.50558594 -0.02390625 15.24164063 0 16 C5.90313304 16.53664846 10.36567603 14.99511899 15.91015625 13.0234375 C20.20528346 11.60077843 24.54462307 10.74913417 29 10 C29.309375 10.804375 29.61875 11.60875 29.9375 12.4375 C30.76335345 14.89080405 30.76335345 14.89080405 32 16 C43.34380824 17.05035262 52.74965 11.2923952 62.33764648 5.91040039 C64.19504175 4.88389481 66.09474863 3.93469143 68 3 C68.99 3.495 68.99 3.495 70 4 C45.09348175 20.06083173 45.09348175 20.06083173 33 19 C30.0625 17.1875 30.0625 17.1875 28 15 C28 14.01 28 13.02 28 12 C27.20734741 12.26478149 27.20734741 12.26478149 26.39868164 12.53491211 C23.95623238 13.34497735 21.50949302 14.1412707 19.0625 14.9375 C18.23169922 15.21529297 17.40089844 15.49308594 16.54492188 15.77929688 C11.21477799 17.50070521 5.66189811 19.24994944 0 19 C-0.99 18.34 -1.98 17.68 -3 17 C-3.36328125 14.57421875 -3.36328125 14.57421875 -3.3125 11.6875 C-3.30863281 10.74261719 -3.30476563 9.79773438 -3.30078125 8.82421875 C-2.95958123 5.62048347 -2.35714806 2.35714806 0 0 Z " fill="#999999" transform="translate(335,57)"/>
<path d="M0 0 C0.82757813 -0.02578125 1.65515625 -0.0515625 2.5078125 -0.078125 C5.44814213 0.32944544 6.77611183 1.17010629 8.875 3.25 C9.64831826 8.85655741 8.72219209 13.3466819 6.296875 18.4609375 C4.50779355 20.71203449 3.44234061 20.96283007 0.625 21.3125 C-1.23125 21.2815625 -1.23125 21.2815625 -3.125 21.25 C-2.25 13.625 -2.25 13.625 -1.125 10.25 C-2.22199219 10.74371094 -3.31898438 11.23742188 -4.44921875 11.74609375 C-5.90352726 12.3934956 -7.35796097 13.04061624 -8.8125 13.6875 C-9.53373047 14.01298828 -10.25496094 14.33847656 -10.99804688 14.67382812 C-14.69046832 16.3092842 -18.08966087 17.68489334 -22.125 18.25 C-16.97065487 13.45112695 -9.89418559 9.40833218 -2.77734375 9.109375 C-1.46443359 9.17898438 -1.46443359 9.17898438 -0.125 9.25 C-0.455 12.55 -0.785 15.85 -1.125 19.25 C0.855 18.92 2.835 18.59 4.875 18.25 C6.21083899 13.40758367 7.12828119 9.31562383 6.875 4.25 C1.54219432 1.58359716 -6.44405705 2.81079294 -12.0625 4.25 C-20.15277713 6.99046664 -28.32673841 11.98955814 -34.125 18.25 C-34.785 17.92 -35.445 17.59 -36.125 17.25 C-30.98982854 11.8865987 -25.53382747 8.11066373 -18.9375 4.8125 C-18.26074219 4.47089844 -17.58398438 4.12929687 -16.88671875 3.77734375 C-11.33367948 1.09881892 -6.17474358 0.11613938 0 0 Z " fill="#959595" transform="translate(480.125,1.75)"/>
<path d="M0 0 C-2.85276137 2.93200474 -5.65079784 5.64315404 -9 8 C-9.66 7.67 -10.32 7.34 -11 7 C-9.68 6.01 -8.36 5.02 -7 4 C-15.7192313 5.38187699 -23.92510348 8.15350085 -32.25 11 C-33.59876672 11.45629596 -34.94772412 11.91202866 -36.296875 12.3671875 C-38.77367483 13.20357081 -41.2490439 14.04377973 -43.72363281 14.88671875 C-45.92140289 15.63350202 -48.13303471 16.34058631 -50.35595703 17.00878906 C-53.1671675 17.72275188 -53.1671675 17.72275188 -54.1015625 20.171875 C-54.27429687 21.02265625 -54.44703125 21.8734375 -54.625 22.75 C-55.76865805 27.33793056 -56.82507027 30.45154912 -60 34 C-62.6875 34.4375 -62.6875 34.4375 -65 34 C-66 33 -66 33 -66.0625 29.9375 C-66.041875 28.968125 -66.02125 27.99875 -66 27 C-65.67 27 -65.34 27 -65 27 C-65 28.65 -65 30.3 -65 32 C-62.53187025 31.98258997 -62.53187025 31.98258997 -60 31 C-58.87986616 28.25856557 -58.87986616 28.25856557 -58.1875 24.9375 C-56.34803811 19.73233539 -54.63437091 17.13220354 -49.90136719 14.53051758 C-40.34004031 9.96296805 -30.17374443 6.8783408 -20 4 C-19.26700684 3.78827148 -18.53401367 3.57654297 -17.77880859 3.35839844 C-5.22063324 -0.25418814 -5.22063324 -0.25418814 0 0 Z " fill="#979797" transform="translate(111,65)"/>
<path d="M0 0 C-0.33 1.175625 -0.66 2.35125 -1 3.5625 C-1.9969533 7.5011676 -2.16869203 10.95139129 -2 15 C1.58726067 16.03524972 3.767094 16.51639068 7.26513672 15.05126953 C9.71833963 13.63527573 12.08045014 12.13323347 14.4375 10.5625 C15.26443359 10.03333984 16.09136719 9.50417969 16.94335938 8.95898438 C18.97399211 7.65609285 20.99145522 6.33659062 23 5 C18.03341476 5.53428417 14.57168759 7.09794313 10.25 9.5625 C4.19114688 13 4.19114688 13 2 13 C2.66 10.03 3.32 7.06 4 4 C4.33 4 4.66 4 5 4 C5 5.98 5 7.96 5 10 C5.70382812 9.50628906 6.40765625 9.01257813 7.1328125 8.50390625 C15.12304019 3.31964625 21.5219961 1.90185499 31 2 C31 2.99 31 3.98 31 5 C29.40671875 5.77923828 29.40671875 5.77923828 27.78125 6.57421875 C26.35379837 7.27789922 24.92674025 7.98237829 23.5 8.6875 C22.76257568 9.05037109 22.02515137 9.41324219 21.26538086 9.78710938 C17.51404486 11.65634461 13.98832517 13.56899522 10.5625 16 C7.07910364 18.29130072 4.09678262 18.52703409 -0.01953125 18.46875 C-2.52687574 17.87529568 -3.464479 17.05054046 -5 15 C-5.42196743 10.44275172 -4.99584278 7.11642574 -3 3 C-3.66 2.67 -4.32 2.34 -5 2 C-2 0 -2 0 0 0 Z " fill="#999999" transform="translate(662,57)"/>
<path d="M0 0 C0.33 0.99 0.66 1.98 1 3 C-0.71568245 5.35830556 -2.43386608 7.46480754 -4.375 9.625 C-5.19895264 10.56061768 -5.19895264 10.56061768 -6.03955078 11.51513672 C-19.24458355 26.38663771 -19.24458355 26.38663771 -26 30 C-27.32 30 -28.64 30 -30 30 C-29.60389313 23.66229007 -25.03840152 18.93111723 -20.625 14.75 C-17.23556979 12.49037986 -13.68722509 10.72009508 -10 9 C-13.05905801 8.03501818 -13.75961246 7.90070949 -16.875 9.1875 C-20.02062631 11.01196326 -23.00882524 12.93466505 -26 15 C-26.66 14.67 -27.32 14.34 -28 14 C-26.37615858 12.85252535 -24.75088944 11.7070709 -23.125 10.5625 C-22.22007812 9.92441406 -21.31515625 9.28632812 -20.3828125 8.62890625 C-15.97309492 5.6143944 -13.27216744 5.91496504 -8 6 C-7.67 6.99 -7.34 7.98 -7 9 C-4.69 6.03 -2.38 3.06 0 0 Z M-21.88671875 17.6796875 C-24.94427443 21.14543071 -27.13444918 24.75068981 -29 29 C-24.39860359 27.51131293 -21.49772906 25.25370145 -18 22 C-18 21.34 -18 20.68 -18 20 C-17.40703125 19.74476562 -16.8140625 19.48953125 -16.203125 19.2265625 C-13.78775462 17.88183502 -12.48788294 16.50785633 -10.75 14.375 C-10.22921875 13.74335937 -9.7084375 13.11171875 -9.171875 12.4609375 C-8.78515625 11.97882812 -8.3984375 11.49671875 -8 11 C-12.91173855 11 -18.31463098 14.49956795 -21.88671875 17.6796875 Z " fill="#969696" transform="translate(226,41)"/>
<path d="M0 0 C0 4.00661691 -1.53920958 5.39709384 -3.9375 8.5625 C-6.70442504 12.13490019 -6.70442504 12.13490019 -9 16 C-8.38705078 15.98428955 -7.77410156 15.9685791 -7.14257812 15.95239258 C24.85536195 15.24338811 24.85536195 15.24338811 37 23 C39.511344 25.709608 40.83285749 27.49857248 42 31 C44.31 31 46.62 31 49 31 C45.76259258 33.15827162 44.75766697 33.73320331 41 33 C39 30.25 39 30.25 37 27 C27.60053197 18.42162792 15.24808013 18.4401172 3.1875 18.75 C1.80145863 18.77013226 0.41538842 18.78837094 -0.97070312 18.8046875 C-4.31456427 18.85129184 -7.65688632 18.91670249 -11 19 C-11.2132523 14.17472341 -10.14131427 12.23890839 -7.1875 8.375 C-6.47980469 7.43398438 -5.77210938 6.49296875 -5.04296875 5.5234375 C-3.44026552 3.54380789 -1.85172256 1.74073604 0 0 Z " fill="#868686" transform="translate(450,25)"/>
<path d="M0 0 C0.66 0.33 1.32 0.66 2 1 C1.18917969 1.66644531 0.37835938 2.33289063 -0.45703125 3.01953125 C-16.13731494 14.79612219 -16.13731494 14.79612219 -25 31 C-16.47341605 30.73270897 -9.72468094 29.57485234 -2 26 C-0.23392318 25.25938714 1.53693182 24.53006 3.3125 23.8125 C4.09238281 23.48894531 4.87226563 23.16539063 5.67578125 22.83203125 C8.10068304 21.96395716 10.4660444 21.44400284 13 21 C4.65355104 27.92446136 -10.08061394 33.83995277 -21 33 C-22.67557379 32.71479595 -24.34817245 32.40044304 -26 32 C-27.27872373 28.48350975 -27.05248332 27.1232217 -25.5625 23.625 C-23.32497938 20.07398604 -20.50351675 17.6177353 -17.28515625 14.96484375 C-13.76765859 11.94039704 -10.60722 8.57681693 -7.39453125 5.234375 C-5.0404095 3.03770674 -2.8889167 1.41775408 0 0 Z " fill="#9D9D9D" transform="translate(437,80)"/>
<path d="M0 0 C-3.34873793 11.94269293 -14.9305552 18.03155513 -25 24 C-26.05703125 24.63808594 -27.1140625 25.27617188 -28.203125 25.93359375 C-35.43118677 30.1177525 -35.43118677 30.1177525 -38.14404297 29.55615234 C-38.75650879 29.37262207 -39.36897461 29.1890918 -40 29 C-39.48727539 28.74420166 -38.97455078 28.48840332 -38.44628906 28.22485352 C-18.69790645 18.30071469 -18.69790645 18.30071469 -3 3 C-9.50890671 4.907783 -15.27510444 7.51928657 -21.21337891 10.75024414 C-22.77279342 11.57265121 -24.38453973 12.29401479 -26 13 C-26.99 12.67 -27.98 12.34 -29 12 C-25.9850778 10.36385595 -22.96210053 8.74317243 -19.9375 7.125 C-19.08994141 6.66480469 -18.24238281 6.20460938 -17.36914062 5.73046875 C-11.73307415 2.72746808 -6.519725 0 0 0 Z " fill="#989898" transform="translate(482,67)"/>
<path d="M0 0 C0.33 0 0.66 0 1 0 C1.33 3.3 1.66 6.6 2 10 C9.60311555 10.42834454 14.2757549 9.42400211 21 6 C21.99 5.67 22.98 5.34 24 5 C24.66 6.98 25.32 8.96 26 11 C33.28598447 10.83808923 38.14339227 7.03807507 44 3 C44.99 2.34 45.98 1.68 47 1 C47.99 1.33 48.98 1.66 50 2 C47.54259704 3.64723726 45.08412999 5.29284464 42.625 6.9375 C41.92632813 7.40607422 41.22765625 7.87464844 40.5078125 8.35742188 C39.50234375 9.0293457 39.50234375 9.0293457 38.4765625 9.71484375 C37.549646 10.33540649 37.549646 10.33540649 36.60400391 10.96850586 C32.99729698 13.28788741 29.20434103 13.90747163 25 13 C23.24609375 10.98046875 23.24609375 10.98046875 22 9 C21.38253906 9.28875 20.76507812 9.5775 20.12890625 9.875 C14.33672787 12.4140371 9.34677519 14.03409779 3 13 C0.4375 11.9375 0.4375 11.9375 -1 10 C-1.33543224 6.24315896 -1.19334591 3.58003773 0 0 Z " fill="#9C9C9C" transform="translate(563,64)"/>
<path d="M0 0 C8.01658487 -0.55821481 14.79937755 0.23631331 22 4 C25.55868863 7.55868863 27.17138159 10.39132798 27.4375 15.375 C27.29463094 26.39179201 19.80346728 34.9925076 13 43 C11.98985958 44.32566742 10.98626786 45.65647721 10 47 C9.01 46.67 8.02 46.34 7 46 C7.66 45.401875 8.32 44.80375 9 44.1875 C16.97165856 36.17041889 24.56869493 25.64523688 25 14 C24.53644413 10.20778519 24.53644413 10.20778519 23 7 C20.94429776 5.57218132 20.94429776 5.57218132 18 5 C17.25105469 4.75636719 16.50210938 4.51273438 15.73046875 4.26171875 C10.4762217 2.55872931 5.49657831 1.50894244 0 1 C0 0.67 0 0.34 0 0 Z " fill="#969696" transform="translate(110,13)"/>
<path d="M0 0 C1 3 1 3 -0.625 6.375 C-0.99753906 7.07367188 -1.37007812 7.77234375 -1.75390625 8.4921875 C-3.74840984 12.50620414 -5.2599937 16.69300626 -6.83203125 20.88671875 C-7.5160859 22.71010188 -8.21501858 24.52825552 -8.94921875 26.33203125 C-10.81538293 30.94737388 -11.56099858 35.08318412 -12 40 C-6.53184364 35.80898673 -1.19205322 31.52923792 4 27 C4.66 27.33 5.32 27.66 6 28 C-6.51626403 40.80216854 -6.51626403 40.80216854 -10.8125 41.375 C-13 41 -13 41 -14 40 C-14.04019391 32.76509701 -12.05060904 26.57989807 -9.25 20 C-8.89164063 19.13149414 -8.53328125 18.26298828 -8.1640625 17.36816406 C-5.69560501 11.45230147 -3.07990481 5.62674917 0 0 Z " fill="#959595" transform="translate(643,39)"/>
<path d="M0 0 C0.99 0.33 1.98 0.66 3 1 C-29.96428911 30.46528635 -29.96428911 30.46528635 -46 36 C-48.28125 35.62890625 -48.28125 35.62890625 -50 35 C-49.1028125 34.55011719 -48.205625 34.10023437 -47.28125 33.63671875 C-29.81498405 24.70126011 -14.50359599 13.17234805 0 0 Z " fill="#9A9A9A" transform="translate(123,64)"/>
<path d="M0 0 C0.33 1.32 0.66 2.64 1 4 C0.278125 4.556875 -0.44375 5.11375 -1.1875 5.6875 C-6.09656266 9.72384041 -10.95171269 13.85513806 -13 20 C-8.30623391 19.14555229 -3.61639251 18.27421735 1.06835938 17.37158203 C2.61229542 17.07458119 4.15750852 16.78422168 5.703125 16.49609375 C9.91165958 15.6045912 12.29487385 14.38140769 15 11 C13.92598892 13.91517292 13.22189824 15.77810176 11 18 C8.28898064 18.79873043 5.62464823 19.49370321 2.875 20.125 C2.14023437 20.30675781 1.40546875 20.48851563 0.6484375 20.67578125 C-4.34894428 21.84594283 -8.86985194 22.17449483 -14 22 C-14.6875 19.74609375 -14.6875 19.74609375 -15 17 C-13.8125 14.97265625 -13.8125 14.97265625 -12 13.0625 C-11.35804688 12.37929688 -10.71609375 11.69609375 -10.0546875 10.9921875 C-7.60778095 8.61971157 -5.06641734 6.42416963 -2.3828125 4.32421875 C-0.72025327 2.93820019 -0.72025327 2.93820019 0 0 Z " fill="#9A9A9A" transform="translate(352,47)"/>
<path d="M0 0 C-0.75023438 0.29132812 -1.50046875 0.58265625 -2.2734375 0.8828125 C-8.57157629 3.40524088 -14.3283293 6.19473581 -20.0390625 9.86328125 C-22 11 -22 11 -24 11 C-23.67 11.66 -23.34 12.32 -23 13 C-18.68729341 14.20005749 -16.66611845 14.33190677 -12.61328125 12.3125 C-11.49996327 11.5606489 -10.39963493 10.78923675 -9.3125 10 C-7.23710213 8.5248043 -5.22916729 7.25882388 -3 6 C-0.81323242 6.39453125 -0.81323242 6.39453125 1 7 C-1.66842628 8.71917307 -4.36213099 10.39403378 -7.0625 12.0625 C-7.81466797 12.54783203 -8.56683594 13.03316406 -9.34179688 13.53320312 C-13.21675914 15.89843983 -15.290655 17.01197504 -19.93359375 16.93359375 C-23 16 -23 16 -25 14 C-25 12.68 -25 11.36 -25 10 C-22.8152247 8.72428516 -20.62738381 7.45439327 -18.4375 6.1875 C-17.82841797 5.83107422 -17.21933594 5.47464844 -16.59179688 5.10742188 C-4.38802625 -1.93073155 -4.38802625 -1.93073155 0 0 Z " fill="#959595" transform="translate(47,21)"/>
<path d="M0 0 C-0.59167969 0.30292969 -1.18335938 0.60585938 -1.79296875 0.91796875 C-8.9932134 4.73539046 -13.36911959 7.77079484 -16.125 15.6875 C-16.41632813 16.64011719 -16.70765625 17.59273437 -17.0078125 18.57421875 C-18 21 -18 21 -21 23 C-23.6875 22.625 -23.6875 22.625 -26 22 C-27.31534494 18.34142468 -26.65468309 15.91973519 -25.5625 12.25 C-25.27503906 11.26515625 -24.98757812 10.2803125 -24.69140625 9.265625 C-24.46324219 8.51796875 -24.23507813 7.7703125 -24 7 C-24.99 6.34 -25.98 5.68 -27 5 C-25.02 5 -23.04 5 -21 5 C-21.2165625 5.66386719 -21.433125 6.32773437 -21.65625 7.01171875 C-21.9346875 7.89472656 -22.213125 8.77773438 -22.5 9.6875 C-22.7784375 10.55761719 -23.056875 11.42773438 -23.34375 12.32421875 C-23.99850805 14.99391677 -24.11831495 17.26396684 -24 20 C-22.03606792 19.85796879 -22.03606792 19.85796879 -20 19 C-18.89025869 16.92099308 -18.89025869 16.92099308 -18.1875 14.375 C-15.7802432 7.75030512 -11.86761406 4.13403837 -6.3125 0 C-3.60840365 -1.16933896 -2.73063103 -0.82781235 0 0 Z " fill="#929292" transform="translate(174,54)"/>
<path d="M0 0 C2 1.1875 2 1.1875 3 3 C2.67014572 7.55659163 0.91619204 9.57506201 -2.3125 12.6875 C-3.09238281 13.45449219 -3.87226563 14.22148438 -4.67578125 15.01171875 C-6.77436793 16.80698029 -8.40406669 18.08473279 -11 19 C-11.99 18.67 -12.98 18.34 -14 18 C-13.40832031 17.62488281 -12.81664062 17.24976562 -12.20703125 16.86328125 C-5.55312605 12.56647832 -5.55312605 12.56647832 0 7 C0 5.68 0 4.36 0 3 C-3.1668608 1.83326181 -5.25880124 1.68112631 -8.37890625 3.0234375 C-14.04997487 6.29620687 -18.6452262 10.12611409 -23 15 C-23 11.44217513 -21.92143491 10.18070114 -19.6328125 7.55859375 C-13.94537362 2.12967481 -7.89398861 -0.56385633 0 0 Z " fill="#919191" transform="translate(391,42)"/>
<path d="M0 0 C2.31 0 4.62 0 7 0 C8.01911045 3.89114901 8.16782969 5.60596507 6.5625 9.375 C6.046875 10.24125 5.53125 11.1075 5 12 C3.768606 8.30581799 4.35567236 5.7943739 5 2 C3.09207274 1.94071495 3.09207274 1.94071495 1 3 C-0.3185217 5.40799063 -1.45043168 7.75143786 -2.5625 10.25 C-5.66056047 16.59474462 -8.32769094 19.94575076 -15.234375 22.34765625 C-19.19629003 23.28217576 -22.93091049 23.79988084 -27 24 C-26.505 22.515 -26.505 22.515 -26 21 C-26 21.66 -26 22.32 -26 23 C-23.57780704 22.09619666 -21.16301455 21.17773942 -18.75 20.25 C-18.06808594 19.99734375 -17.38617187 19.7446875 -16.68359375 19.484375 C-9.57725775 16.72463286 -6.78105919 13.04049844 -3.25 6.25 C-2.93417969 5.64800781 -2.61835937 5.04601563 -2.29296875 4.42578125 C-1.52202105 2.953972 -0.76007676 1.47745258 0 0 Z " fill="#919191" transform="translate(596,47)"/>
<path d="M0 0 C-0.76084588 4.18865681 -1.87822698 8.22484795 -3.0625 12.3125 C-3.42472656 13.56675781 -3.78695313 14.82101563 -4.16015625 16.11328125 C-4.57587891 17.54220703 -4.57587891 17.54220703 -5 19 C-3.35 19 -1.7 19 0 19 C0.495 17.7315625 0.495 17.7315625 1 16.4375 C4.15611724 11.01292349 8.82139502 7.45240332 14 4 C11.48301414 9.66321819 7.32706616 13.67293384 3 18 C2.34 18.99 1.68 19.98 1 21 C-2.0625 21.25 -2.0625 21.25 -5 21 C-6 20 -6 20 -6.25 16.5 C-6.21483269 11.64691071 -4.74378145 7.48400943 -3 3 C-4.32 2.34 -5.64 1.68 -7 1 C-2.25 0 -2.25 0 0 0 Z " fill="#959595" transform="translate(513,58)"/>
<path d="M0 0 C1.4540625 0.0309375 1.4540625 0.0309375 2.9375 0.0625 C4.52288318 2.58046153 4.9748656 3.74115586 4.625 6.75 C3.9375 9.0625 3.9375 9.0625 2.9375 10.0625 C0.59805264 9.77519945 -1.7364143 9.44313221 -4.0625 9.0625 C-4.16015625 2.91015625 -4.16015625 2.91015625 -4.0625 1.0625 C-3.0625 0.0625 -3.0625 0.0625 0 0 Z " fill="#969696" transform="translate(183.0625,66.9375)"/>
<path d="M0 0 C2.6875 -0.25 2.6875 -0.25 5 0 C5 0.99 5 1.98 5 3 C2.525 2.505 2.525 2.505 0 2 C-0.26119629 2.60448975 -0.52239258 3.20897949 -0.79150391 3.83178711 C-2.09018216 6.16179955 -3.18055325 7.1605969 -5.3359375 8.69140625 C-5.98820312 9.16126953 -6.64046875 9.63113281 -7.3125 10.11523438 C-7.993125 10.59283203 -8.67375 11.07042969 -9.375 11.5625 C-10.71615646 12.52212057 -12.05730258 13.48175558 -13.3984375 14.44140625 C-14.02717773 14.88500488 -14.65591797 15.32860352 -15.30371094 15.78564453 C-16.67810016 16.7695553 -18.02032331 17.79829282 -19.3515625 18.83984375 C-21 20 -21 20 -23 20 C-22.49477778 15.62140745 -19.82172778 13.18348776 -17 10 C-16.34 10.33 -15.68 10.66 -15 11 C-15.33 11.66 -15.66 12.32 -16 13 C-13.89005433 11.59136295 -11.78727787 10.17365386 -9.6875 8.75 C-9.09259766 8.35425781 -8.49769531 7.95851563 -7.88476562 7.55078125 C-4.60474936 5.31523944 -2.31837585 3.1877668 0 0 Z " fill="#979797" transform="translate(301,50)"/>
<path d="M0 0 C1.1446875 0.3403125 1.1446875 0.3403125 2.3125 0.6875 C1.82704933 7.11972143 1.82704933 7.11972143 -0.5 9.6875 C-2.6875 10.6875 -2.6875 10.6875 -4.9375 10.375 C-5.515 10.148125 -6.0925 9.92125 -6.6875 9.6875 C-6.0875 3.3275 -6.0875 3.3275 -4.4375 0.6875 C-2.6875 -0.3125 -2.6875 -0.3125 0 0 Z " fill="#9E9E9E" transform="translate(605.6875,33.3125)"/>
<path d="M0 0 C2 3 2 3 2.0625 4.9375 C0.66299951 7.65417743 -1.29672482 8.47781371 -3.9453125 9.8515625 C-7.55227836 11.86762327 -10.74647558 14.46478617 -14 17 C-14.66 16.67 -15.32 16.34 -16 16 C-11.26638344 11.62294157 -6.7266425 7.9826263 -1 5 C-1 4.34 -1 3.68 -1 3 C-5.87009335 2.42704784 -8.06034514 4.3450152 -12 7 C-12.99 6.67 -13.98 6.34 -15 6 C-5.38202625 -1.1814204 -5.38202625 -1.1814204 0 0 Z " fill="#8D8D8D" transform="translate(303,42)"/>
<path d="M0 0 C-2.85276137 2.93200474 -5.65079784 5.64315404 -9 8 C-9.66 7.67 -10.32 7.34 -11 7 C-9.68 6.01 -8.36 5.02 -7 4 C-12.18778597 4.93821661 -17.22556295 6.01382034 -22.25 7.625 C-25.95121646 8.78673829 -29.08596611 9.30900268 -33 9 C-28.32065301 5.88043534 -23.01066022 4.86697344 -17.625 3.375 C-16.48804687 3.05015625 -15.35109375 2.7253125 -14.1796875 2.390625 C-13.08140625 2.08382812 -11.983125 1.77703125 -10.8515625 1.4609375 C-9.84947754 1.18040527 -8.84739258 0.89987305 -7.81494141 0.61083984 C-5.10920587 0.02369758 -2.75739966 -0.117967 0 0 Z " fill="#A0A0A0" transform="translate(111,65)"/>
<path d="M0 0 C0.66 0.33 1.32 0.66 2 1 C1.57847656 1.42410156 1.15695313 1.84820312 0.72265625 2.28515625 C-3.08435934 6.36090235 -5 9.17984079 -5 15 C-3.39786683 18.12230253 -3.39786683 18.12230253 -1.08203125 18.50390625 C3.69502631 18.6272382 6.3759947 18.18243213 10.0625 15 C11.06228748 14.02061634 12.04931078 13.02711118 13 12 C13.66 12.33 14.32 12.66 15 13 C10.37727606 17.82425959 6.85944784 20.72259467 0.078125 21.22265625 C-2.35809321 20.96163287 -3.92713292 20.29328881 -6 19 C-7.60608952 15.78782097 -7.48016287 12.48442514 -7 9 C-5.08984606 5.509029 -2.95735771 2.66162194 0 0 Z " fill="#929292" transform="translate(196,56)"/>
<path d="M0 0 C-7.59471639 3.64115481 -15.22188936 7.2029599 -23 10.4375 C-24.7634375 11.17806641 -24.7634375 11.17806641 -26.5625 11.93359375 C-30.22396497 13.06948004 -33.18977211 13.19925937 -37 13 C-34.16135541 11.50879786 -31.34297801 10.36402147 -28.3046875 9.34375 C-26.98404297 8.89322266 -26.98404297 8.89322266 -25.63671875 8.43359375 C-23.78856012 7.80882725 -21.93959273 7.18644834 -20.08984375 6.56640625 C-19.21199219 6.26605469 -18.33414063 5.96570313 -17.4296875 5.65625 C-16.62772949 5.38619141 -15.82577148 5.11613281 -14.99951172 4.83789062 C-12.82072387 4.07330699 -12.82072387 4.07330699 -11 2 C-9.16015625 1.11328125 -9.16015625 1.11328125 -7.0625 0.3125 C-6.37285156 0.04050781 -5.68320312 -0.23148437 -4.97265625 -0.51171875 C-3 -1 -3 -1 0 0 Z " fill="#9E9E9E" transform="translate(69,103)"/>
<path d="M0 0 C-0.33 0.99 -0.66 1.98 -1 3 C-1.99 3 -2.98 3 -4 3 C-6.7490618 3.98222292 -9.43039974 5.01033244 -12.125 6.125 C-12.88965576 6.43904785 -13.65431152 6.7530957 -14.44213867 7.07666016 C-19.43384576 9.18586207 -23.90317764 11.54723821 -28.23828125 14.8359375 C-30.14942179 16.09873103 -31.76281949 16.57528141 -34 17 C-26.73446045 9.00434496 -10.91850976 0 0 0 Z " fill="#9A9A9A" transform="translate(48,84)"/>
<path d="M0 0 C0.33 0 0.66 0 1 0 C2.662454 9.81309651 -2.04609563 16.94872139 -7 25 C-7.97423951 26.35227037 -8.96164022 27.696318 -10 29 C-9.01 29.66 -8.02 30.32 -7 31 C-9.31 31.33 -11.62 31.66 -14 32 C-12.71146069 29.37912552 -11.35810869 26.81896701 -9.90625 24.28515625 C-9.51566406 23.59873047 -9.12507812 22.91230469 -8.72265625 22.20507812 C-7.90923304 20.77963841 -7.09413469 19.35515327 -6.27734375 17.93164062 C-2.87670222 11.94404242 -0.81480105 6.9258089 0 0 Z " fill="#9C9C9C" transform="translate(143,27)"/>
<path d="M0 0 C0.66 0.33 1.32 0.66 2 1 C0.55367188 2.12148437 0.55367188 2.12148437 -0.921875 3.265625 C-2.19802809 4.26027373 -3.47406356 5.25507337 -4.75 6.25 C-5.70132812 6.98669922 -5.70132812 6.98669922 -6.671875 7.73828125 C-9.98687432 10.32812447 -13.10592764 12.93052932 -16 16 C-14.35 16 -12.7 16 -11 16 C-14.44450737 18.29633824 -16.93812283 18.54016485 -21 19 C-17.46570165 10.46360725 -7.59368755 4.67727132 0 0 Z " fill="#949494" transform="translate(445,84)"/>
<path d="M0 0 C0.66 1.32 1.32 2.64 2 4 C1.34 3.67 0.68 3.34 0 3 C-3.94563553 2.51663154 -5.64636205 2.78133837 -9.0703125 4.8984375 C-10.07835937 5.71570312 -11.08640625 6.53296875 -12.125 7.375 C-18.47635674 12.46578212 -18.47635674 12.46578212 -22 14 C-21.55090939 12.51800098 -21.09043436 11.03944764 -20.625 9.5625 C-20.36976563 8.73878906 -20.11453125 7.91507813 -19.8515625 7.06640625 C-19 5 -19 5 -17 4 C-17.33 5.65 -17.66 7.3 -18 9 C-16.84371094 8.15115234 -16.84371094 8.15115234 -15.6640625 7.28515625 C-14.66117187 6.55167969 -13.65828125 5.81820312 -12.625 5.0625 C-11.62726563 4.33160156 -10.62953125 3.60070313 -9.6015625 2.84765625 C-6.03444224 0.31425102 -4.33007422 -0.11394932 0 0 Z " fill="#909090" transform="translate(350,43)"/>
<path d="M0 0 C0.87592071 2.43002886 1.13707513 3.62198218 0.24316406 6.0871582 C-0.16192383 6.81765381 -0.56701172 7.54814941 -0.984375 8.30078125 C-1.42523438 9.11353516 -1.86609375 9.92628906 -2.3203125 10.76367188 C-2.79210937 11.60478516 -3.26390625 12.44589844 -3.75 13.3125 C-4.66395716 14.97388822 -5.57546127 16.63662851 -6.484375 18.30078125 C-6.91814453 19.09436035 -7.35191406 19.88793945 -7.79882812 20.70556641 C-9.38755523 23.74029351 -10.71497885 26.82599776 -12 30 C-12.92311871 27.48598227 -13.09128589 26.27771524 -12.24316406 23.69750977 C-11.83807617 22.87049561 -11.43298828 22.04348145 -11.015625 21.19140625 C-10.57476562 20.27939453 -10.13390625 19.36738281 -9.6796875 18.42773438 C-9.20789063 17.48220703 -8.73609375 16.53667969 -8.25 15.5625 C-7.79367187 14.62083984 -7.33734375 13.67917969 -6.8671875 12.70898438 C-4.7400652 8.35330186 -2.53423368 4.1354086 0 0 Z " fill="#999999" transform="translate(346,17)"/>
<path d="M0 0 C1.15957207 3.47871621 0.77456651 4.34219645 -0.4375 7.6875 C-0.72496094 8.49574219 -1.01242187 9.30398437 -1.30859375 10.13671875 C-1.53675781 10.75160156 -1.76492188 11.36648437 -2 12 C-0.98679687 11.33291016 -0.98679687 11.33291016 0.046875 10.65234375 C1.38492187 9.80349609 1.38492187 9.80349609 2.75 8.9375 C3.63171875 8.36902344 4.5134375 7.80054688 5.421875 7.21484375 C8 6 8 6 10.328125 6.31640625 C11.15570313 6.65478516 11.15570313 6.65478516 12 7 C9.9219935 8.17713663 7.83848217 9.34171974 5.75 10.5 C5.16347656 10.83386719 4.57695312 11.16773437 3.97265625 11.51171875 C0.61417893 13.36076806 -1.06645784 14 -5 14 C-4.53411505 8.29290936 -3.06242216 4.84060277 0 0 Z " fill="#959595" transform="translate(306,54)"/>
<path d="M0 0 C0.66 0.33 1.32 0.66 2 1 C-20.2800135 14.9560021 -20.2800135 14.9560021 -27 16 C-24.79004357 13.57736261 -22.63732777 12.11892129 -19.7265625 10.625 C-18.9015625 10.19703125 -18.0765625 9.7690625 -17.2265625 9.328125 C-16.36804688 8.88984375 -15.50953125 8.4515625 -14.625 8 C-12.92901233 7.12630938 -11.23368041 6.25134446 -9.5390625 5.375 C-8.74661133 4.96765625 -7.95416016 4.5603125 -7.13769531 4.140625 C-5.39165444 3.20897779 -3.69795146 2.17981194 -2.0234375 1.125 C-1.35570313 0.75375 -0.68796875 0.3825 0 0 Z " fill="#919191" transform="translate(90,79)"/>
<path d="M0 0 C0.33 0 0.66 0 1 0 C0.67 5.28 0.34 10.56 0 16 C5.81578053 14.4151283 5.81578053 14.4151283 11 12 C9.4375 15 9.4375 15 7 18 C3.375 18.5 3.375 18.5 0 18 C-2 16 -2 16 -2.01171875 13.3203125 C-1.90472656 12.26585938 -1.79773438 11.21140625 -1.6875 10.125 C-1.58824219 9.07570313 -1.48898437 8.02640625 -1.38671875 6.9453125 C-1.07200313 4.54838745 -0.65603886 2.32136827 0 0 Z " fill="#9C9C9C" transform="translate(539,56)"/>
<path d="M0 0 C0.99 0.33 1.98 0.66 3 1 C-5.22010349 8.34757853 -13.4946755 15.36721511 -23 21 C-21.69369323 17.0810797 -19.90937863 16.25405513 -16.5625 13.875 C-10.68430492 9.6208561 -5.30057572 4.96049454 0 0 Z " fill="#919191" transform="translate(123,64)"/>
<path d="M0 0 C0 0.33 0 0.66 0 1 C-1.258125 1.37125 -2.51625 1.7425 -3.8125 2.125 C-8.80140035 3.76421012 -13.17965471 6.17136158 -17.71484375 8.79296875 C-20 10 -20 10 -22 10 C-21.34 7.03 -20.68 4.06 -20 1 C-19.67 1 -19.34 1 -19 1 C-19 2.98 -19 4.96 -19 7 C-18.21496094 6.4946875 -17.42992187 5.989375 -16.62109375 5.46875 C-6.18629174 -0.98418278 -6.18629174 -0.98418278 0 0 Z " fill="#959595" transform="translate(686,60)"/>
<path d="M0 0 C1.4650113 4.50371428 -0.13630407 7.58005406 -1.9375 11.75 C-2.22818359 12.44738281 -2.51886719 13.14476563 -2.81835938 13.86328125 C-3.53551703 15.57975695 -4.26643402 17.29047232 -5 19 C-3.02 18.67 -1.04 18.34 1 18 C0.67 18.66 0.34 19.32 0 20 C-2.32156597 20.40729228 -4.6568787 20.74438677 -7 21 C-6.45806986 15.669877 -5.15341447 11.42105958 -2.9375 6.5625 C-2.65583984 5.92634766 -2.37417969 5.29019531 -2.08398438 4.63476562 C-1.39710188 3.08636949 -0.69965593 1.54266643 0 0 Z " fill="#929292" transform="translate(66,55)"/>
<path d="M0 0 C0 3.98000953 -1.48236191 5.29982336 -3.875 8.4375 C-6.29094621 11.61979473 -8.20335123 14.40670245 -10 18 C-5.71 18 -1.42 18 3 18 C3 18.33 3 18.66 3 19 C-1.62 19 -6.24 19 -11 19 C-11 13.48901499 -10.39108423 12.5656345 -7.1875 8.375 C-6.47980469 7.43398438 -5.77210938 6.49296875 -5.04296875 5.5234375 C-3.44026552 3.54380789 -1.85172256 1.74073604 0 0 Z " fill="#9E9E9E" transform="translate(450,25)"/>
<path d="M0 0 C0.33 0 0.66 0 1 0 C0.7331127 6.00496425 -1.46709213 10.09033061 -4.43359375 15.265625 C-6.44396056 18.77499349 -8.21919815 22.36990391 -10 26 C-11.36167818 21.91496546 -9.78622403 19.66721992 -8 16 C-7.6695166 15.31824707 -7.3390332 14.63649414 -6.99853516 13.93408203 C-5.95041516 11.80295383 -4.88466418 9.68162378 -3.8125 7.5625 C-3.44447266 6.83095703 -3.07644531 6.09941406 -2.69726562 5.34570312 C-1.80002361 3.56287159 -0.90027407 1.78130237 0 0 Z " fill="#989898" transform="translate(246,19)"/>
<path d="M0 0 C5.86737883 -0.4789697 9.42259463 0.47891895 14 4 C16.511344 6.709608 17.83285749 8.49857248 19 12 C21.31 12 23.62 12 26 12 C22.76259258 14.15827162 21.75766697 14.73320331 18 14 C16 11.25 16 11.25 14 8 C9.93550178 3.93550178 5.39887503 2.55261766 0 1 C0 0.67 0 0.34 0 0 Z " fill="#9B9B9B" transform="translate(473,44)"/>
<path d="M0 0 C0.66 0 1.32 0 2 0 C2.125 6.625 2.125 6.625 1 10 C0.93062938 12.22818441 0.91542916 14.45834524 0.9375 16.6875 C0.95103516 18.45673828 0.95103516 18.45673828 0.96484375 20.26171875 C0.97644531 21.16535156 0.98804688 22.06898437 1 23 C0.01 22.67 -0.98 22.34 -2 22 C-2.2358396 16.22192976 -1.86783046 11.48675196 0 6 C-0.66 5.67 -1.32 5.34 -2 5 C-1.34 3.35 -0.68 1.7 0 0 Z " fill="#A7A7A7" transform="translate(615,59)"/>
<path d="M0 0 C0.66 0.33 1.32 0.66 2 1 C-0.28953844 2.98167622 -2.58149798 4.96042047 -4.875 6.9375 C-5.85146484 7.78344727 -5.85146484 7.78344727 -6.84765625 8.64648438 C-7.47285156 9.18466797 -8.09804688 9.72285156 -8.7421875 10.27734375 C-9.3182373 10.77484131 -9.89428711 11.27233887 -10.48779297 11.78491211 C-12 13 -12 13 -14 14 C-13.49202991 9.6822542 -12.80317221 5.96697886 -11 2 C-10.855625 2.639375 -10.71125 3.27875 -10.5625 3.9375 C-10.18992819 5.97545146 -10.18992819 5.97545146 -9 7 C-6.03 4.69 -3.06 2.38 0 0 Z " fill="#949494" transform="translate(657,51)"/>
<path d="M0 0 C1.32 0.33 2.64 0.66 4 1 C4.79296875 3.17578125 4.79296875 3.17578125 5 6 C3.05078125 8.60546875 3.05078125 8.60546875 0.3125 11.1875 C-0.57824219 12.04730469 -1.46898437 12.90710938 -2.38671875 13.79296875 C-4.59785798 15.66037334 -6.27755709 17.06577222 -9 18 C-9.99 17.67 -10.98 17.34 -12 17 C-11.40832031 16.62488281 -10.81664062 16.24976562 -10.20703125 15.86328125 C-3.55312605 11.56647832 -3.55312605 11.56647832 2 6 C2 4.68 2 3.36 2 2 C1.34 1.34 0.68 0.68 0 0 Z " fill="#979797" transform="translate(389,43)"/>
<path d="M0 0 C0 3.29474455 -0.71214377 5.46749052 -1.8125 8.5625 C-2.31716797 10.01849609 -2.31716797 10.01849609 -2.83203125 11.50390625 C-4 14 -4 14 -7 16 C-10.51724138 15.48275862 -10.51724138 15.48275862 -12 14 C-12.04063832 12.33382885 -12.042721 10.66611905 -12 9 C-11.34 10.32 -10.68 11.64 -10 13 C-8.04714918 12.88072436 -8.04714918 12.88072436 -6 12 C-4.71250499 9.76014735 -4.71250499 9.76014735 -3.875 7.0625 C-2.17218543 2.17218543 -2.17218543 2.17218543 0 0 Z " fill="#979797" transform="translate(258,61)"/>
<path d="M0 0 C-1.24834144 3.74502433 -2.86174026 4.76484276 -5.9375 7.1875 C-6.83339844 7.90292969 -7.72929687 8.61835937 -8.65234375 9.35546875 C-11 11 -11 11 -13 11 C-11.56590028 7.64138305 -9.80630679 5.64125061 -7.0625 3.25 C-6.37285156 2.63640625 -5.68320312 2.0228125 -4.97265625 1.390625 C-3 0 -3 0 0 0 Z " fill="#9E9E9E" transform="translate(387,48)"/>
<path d="M0 0 C1.9375 0.1875 1.9375 0.1875 4 1 C5.25 3.0625 5.25 3.0625 6 5 C5.34 5.66 4.68 6.32 4 7 C1.375 6.625 1.375 6.625 -1 6 C-1.042721 4.33388095 -1.04063832 2.66617115 -1 1 C-0.67 0.67 -0.34 0.34 0 0 Z " fill="#F8F8F8" transform="translate(181,68)"/>
<path d="M0 0 C0.66 0.33 1.32 0.66 2 1 C0.63875 2.175625 0.63875 2.175625 -0.75 3.375 C-4.68520116 7.25425043 -6.26754931 11.84341148 -8 17 C-8.66 17 -9.32 17 -10 17 C-8.48615184 10.66153006 -7.21693101 6.28055878 -2 2 C-1.34 1.34 -0.68 0.68 0 0 Z " fill="#979797" transform="translate(328,63)"/>
<path d="M0 0 C0.625 1.875 0.625 1.875 1 4 C0.34 4.66 -0.32 5.32 -1 6 C-1.99 6 -2.98 6 -4 6 C-6.11775458 7.53448205 -6.11775458 7.53448205 -8.1875 9.5 C-8.90292969 10.1496875 -9.61835937 10.799375 -10.35546875 11.46875 C-10.89816406 11.9740625 -11.44085937 12.479375 -12 13 C-12.66 12.67 -13.32 12.34 -14 12 C-9.64157559 7.40312076 -5.25723759 3.54058858 0 0 Z " fill="#959595" transform="translate(568,51)"/>
<path d="M0 0 C-0.75 5.75 -0.75 5.75 -3 8 C-3.99 8 -4.98 8 -6 8 C-6.36458333 3.50347222 -6.36458333 3.50347222 -4.6875 1.1875 C-3 0 -3 0 0 0 Z " fill="#F6F6F6" transform="translate(607,34)"/>
<path d="M0 0 C-0.66 1.32 -1.32 2.64 -2 4 C-2 3.34 -2 2.68 -2 2 C-6.29 2.66 -10.58 3.32 -15 4 C-15.33 4.99 -15.66 5.98 -16 7 C-15.67 5.35 -15.34 3.7 -15 2 C-9.92523206 0.73694665 -5.27203646 -0.27036084 0 0 Z " fill="#A0A0A0" transform="translate(648,31)"/>
<path d="M0 0 C0.66 0 1.32 0 2 0 C1.71125 0.70125 1.4225 1.4025 1.125 2.125 C-0.02133588 5.05452503 -1.02625654 8.00921653 -2 11 C1.63 11.33 5.26 11.66 9 12 C9 12.33 9 12.66 9 13 C4.83861737 13.08159574 1.0527516 12.98248524 -3 12 C-3.94721072 9.39517051 -4.30222393 7.69325299 -3.17578125 5.109375 C-2.17063275 3.37417127 -1.0893855 1.68359577 0 0 Z " fill="#8E8E8E" transform="translate(414,100)"/>
<path d="M0 0 C-0.5590888 3.24271506 -1.4132178 4.93057424 -4 7 C-4.66 7 -5.32 7 -6 7 C-6 6.01 -6 5.02 -6 4 C-6.99 3.67 -7.98 3.34 -9 3 C-5.55930376 0.70620251 -4.27709699 0 0 0 Z " fill="#B5B5B5" transform="translate(411,53)"/>
<path d="M0 0 C0 3.63 0 7.26 0 11 C-0.33 11 -0.66 11 -1 11 C-1 8.36 -1 5.72 -1 3 C-1.54269531 3.5053125 -2.08539063 4.010625 -2.64453125 4.53125 C-3.35996094 5.1809375 -4.07539063 5.830625 -4.8125 6.5 C-5.87404297 7.47453125 -5.87404297 7.47453125 -6.95703125 8.46875 C-9 10 -9 10 -12 10 C-10.38113585 8.32737283 -8.7547271 6.66204463 -7.125 5 C-6.22007812 4.071875 -5.31515625 3.14375 -4.3828125 2.1875 C-2 0 -2 0 0 0 Z " fill="#9A9A9A" transform="translate(223,57)"/>
<path d="M0 0 C-1.30567792 3.91703377 -2.80094602 4.31757187 -6.375 6.25 C-7.84066406 7.06210938 -7.84066406 7.06210938 -9.3359375 7.890625 C-12 9 -12 9 -15 8 C-12.8782637 6.66121428 -10.75294812 5.32884524 -8.625 4 C-8.02171875 3.6184375 -7.4184375 3.236875 -6.796875 2.84375 C-2.2265625 0 -2.2265625 0 0 0 Z " fill="#949494" transform="translate(467,91)"/>
<path d="M0 0 C0.66 0.33 1.32 0.66 2 1 C0.75323147 2.27400377 -0.4975648 3.54406654 -1.75 4.8125 C-2.44609375 5.52019531 -3.1421875 6.22789063 -3.859375 6.95703125 C-5.84285118 8.85002038 -7.65981054 10.56829873 -10 12 C-10.99 11.67 -11.98 11.34 -13 11 C-8.71 7.37 -4.42 3.74 0 0 Z " fill="#969696" transform="translate(647,66)"/>
<path d="M0 0 C0.66 0.33 1.32 0.66 2 1 C1.67 1.61875 1.34 2.2375 1 2.875 C-0.14193235 4.91018344 -0.14193235 4.91018344 0 7 C-3.46153846 10 -3.46153846 10 -6 10 C-5.49477778 5.62140745 -2.82172778 3.18348776 0 0 Z " fill="#9E9E9E" transform="translate(284,60)"/>
<path d="M0 0 C-1.2125738 3.72433382 -2.50859979 7.37802806 -4 11 C-4.93423645 7.98968256 -5.04449911 7.13349732 -4 4 C-5.98 4 -7.96 4 -10 4 C-7.25346796 1.25346796 -3.91404908 0 0 0 Z " fill="#959595" transform="translate(72,17)"/>
<path d="M0 0 C0 1.65 0 3.3 0 5 C-0.33 4.01 -0.66 3.02 -1 2 C-3.97 4.31 -6.94 6.62 -10 9 C-10.66 8.67 -11.32 8.34 -12 8 C-10.57084149 6.65772954 -9.13137328 5.32642904 -7.6875 4 C-6.48673828 2.88625 -6.48673828 2.88625 -5.26171875 1.75 C-3 0 -3 0 0 0 Z " fill="#9A9A9A" transform="translate(541,51)"/>
<path d="M0 0 C0.7425 0.0825 1.485 0.165 2.25 0.25 C2.25 1.24 2.25 2.23 2.25 3.25 C-2.18076923 5.34230769 -2.18076923 5.34230769 -5.0625 4.875 C-5.619375 4.66875 -6.17625 4.4625 -6.75 4.25 C-3.42692308 0.31153846 -3.42692308 0.31153846 0 0 Z " fill="#BABABA" transform="translate(690.75,58.75)"/>
<path d="M0 0 C1.00796724 3.16069729 0.97083624 5.33511958 0.25 8.5625 C0.09015625 9.32691406 -0.0696875 10.09132813 -0.234375 10.87890625 C-1.08787329 13.24344488 -2.11184497 14.37639417 -4 16 C-2.98408579 10.53135543 -1.92908943 5.23609987 0 0 Z " fill="#A4A4A4" transform="translate(621,43)"/>
<path d="M0 0 C2.875 -0.125 2.875 -0.125 6 0 C8.35953094 2.35953094 8.49141413 3.77895617 9 7 C7.02 7.99 7.02 7.99 5 9 C5 6.69 5 4.38 5 2 C3.35 1.67 1.7 1.34 0 1 C0 0.67 0 0.34 0 0 Z " fill="#929292" transform="translate(158,43)"/>
<path d="M0 0 C-0.66 2.31 -1.32 4.62 -2 7 C-2.33 5.68 -2.66 4.36 -3 3 C-3.78375 3.515625 -4.5675 4.03125 -5.375 4.5625 C-6.24125 5.036875 -7.1075 5.51125 -8 6 C-8.66 5.67 -9.32 5.34 -10 5 C-8.71186658 4.16121545 -7.41936744 3.32913217 -6.125 2.5 C-5.40570313 2.0359375 -4.68640625 1.571875 -3.9453125 1.09375 C-2 0 -2 0 0 0 Z " fill="#A7A7A7" transform="translate(318,64)"/>
<path d="M0 0 C0.33 0 0.66 0 1 0 C1 1.65 1 3.3 1 5 C2.98 4.67 4.96 4.34 7 4 C6.67 4.66 6.34 5.32 6 6 C3.67843403 6.40729228 1.3431213 6.74438677 -1 7 C-0.67 4.69 -0.34 2.38 0 0 Z " fill="#A2A2A2" transform="translate(60,69)"/>
<path d="M0 0 C0.66 0 1.32 0 2 0 C1.690625 0.61875 1.38125 1.2375 1.0625 1.875 C-0.4039278 6.18802294 -0.66619026 10.4759996 -1 15 C-1.33 15 -1.66 15 -2 15 C-2.05386629 12.87527424 -2.09273071 10.75016348 -2.125 8.625 C-2.14820313 7.44164063 -2.17140625 6.25828125 -2.1953125 5.0390625 C-2 2 -2 2 0 0 Z " fill="#A8A8A8" transform="translate(335,57)"/>
<path d="M0 0 C0.33 0.66 0.66 1.32 1 2 C0.0625 4.125 0.0625 4.125 -1 6 C-0.34 6.33 0.32 6.66 1 7 C-0.375 8.5 -0.375 8.5 -2 10 C-2.66 10 -3.32 10 -4 10 C-3.52449439 8.51965236 -3.04448784 7.04074979 -2.5625 5.5625 C-2.29566406 4.73878906 -2.02882813 3.91507813 -1.75390625 3.06640625 C-1 1 -1 1 0 0 Z " fill="#A4A4A4" transform="translate(332,47)"/>
<path d="M0 0 C0.515625 0.2475 1.03125 0.495 1.5625 0.75 C-4.8375 4.81153846 -4.8375 4.81153846 -7.875 4.5 C-8.390625 4.2525 -8.90625 4.005 -9.4375 3.75 C-3.0375 -0.31153846 -3.0375 -0.31153846 0 0 Z " fill="#A9A9A9" transform="translate(72.4375,90.25)"/>
<path d="M0 0 C0.33 0.99 0.66 1.98 1 3 C-1.8125 4.5625 -1.8125 4.5625 -5 6 C-5.99 5.67 -6.98 5.34 -8 5 C-4.04 2.525 -4.04 2.525 0 0 Z " fill="#9F9F9F" transform="translate(303,46)"/>
</svg>
