<svg width="140" height="140" viewBox="0 0 30 30" fill="none" xmlns="http://www.w3.org/2000/svg">
<path d="M18.2081 3.75655C18.2081 3.75655 24.0366 7.08843 25.5619 12.3816C26.9363 17.1628 25.8356 19.4447 25.8356 19.4447C26.5385 20.2105 27.0924 21.1007 27.4688 22.0697C27.8468 22.6922 28.069 23.3969 28.1163 24.1237C28.1636 24.8505 28.0348 25.578 27.7406 26.2444C27.7406 26.2444 27.6469 24.2944 24.7406 23.8903C22.0772 23.5153 21.1087 26.1084 16.0219 25.9828C13.2034 25.9291 10.4408 25.1868 7.97497 23.8205C5.50915 22.4543 3.41497 20.5056 1.875 18.1444C4.36031 19.5 7.61625 21.6047 11.6709 21.2812C15.7256 20.9578 16.5722 19.7119 16.5722 19.7119C12.0145 16.1053 7.9803 11.8827 4.58531 7.1653C7.77281 9.83249 15.6684 15.1406 15.4847 15.0056C12.5966 12.1836 9.95425 9.12065 7.58625 5.84999C7.58625 5.84999 19.4325 15.5897 20.3859 15.5278C20.7778 14.7206 22.8037 10.5422 18.2072 3.75562L18.2081 3.75655Z" fill="url(#paint0_linear_672_1345)"/>
<defs>
<linearGradient id="paint0_linear_672_1345" x1="15.4125" y1="12.7566" x2="14.9169" y2="26.2556" gradientUnits="userSpaceOnUse">
<stop stop-color="#F88535"/>
<stop offset="1" stop-color="#FD2221"/>
</linearGradient>
</defs>
</svg>
